<svg width="13" height="17" viewBox="0 0 13 17" fill="none" xmlns="http://www.w3.org/2000/svg">
<path d="M4.36679 1.53268H7.79433C8.10172 1.53268 8.34594 1.28425 8.34594 0.981073V0.602106V0.547366C8.34594 0.244193 8.09751 -3.05176e-05 7.79433 -3.05176e-05H4.36679C4.06361 -3.05176e-05 3.81939 0.248403 3.81939 0.547366V0.602106V0.976862C3.81518 1.28425 4.06361 1.53268 4.36679 1.53268Z" fill="#333333"/>
<path d="M11.609 0.602173H8.93941V0.976929C8.93941 1.60854 8.4257 2.11804 7.79409 2.11804H4.36654C3.73914 2.11804 3.22543 1.60854 3.22543 0.976929V0.602173H0.551608C0.248434 0.602173 0 0.850607 0 1.14957V15.4703C0 15.7777 0.248434 16.0219 0.551608 16.0219H11.609C11.9122 16.0219 12.1564 15.7735 12.1564 15.4703V1.14957C12.1564 0.850607 11.9122 0.602173 11.609 0.602173ZM2.9012 12.1186L1.04426 10.1564L1.65061 9.57948L2.95594 10.9606L5.78556 8.50995L6.33296 9.14157L2.9012 12.1186ZM2.9012 7.9415L1.04426 5.9793L1.65061 5.40242L2.95594 6.78355L5.78556 4.33289L6.33296 4.96451L2.9012 7.9415ZM10.8806 11.3943H7.01089V10.5564H10.8806V11.3943ZM10.8806 6.46774H7.01089V5.6298H10.8806V6.46774Z" fill="#333333"/>
</svg>
