<svg width="41" height="26" viewBox="0 0 41 26" fill="none" xmlns="http://www.w3.org/2000/svg">
<path d="M8.81999 20.6793C8.77989 20.6525 16.0384 17.939 20.7704 18.233C25.3554 18.5138 31.7851 20.5055 31.7851 20.5055V14.3966C31.7851 14.3966 26.9461 11.2954 21.3853 11.2553C15.8245 11.2152 8.81999 14.2228 8.81999 14.2228V20.6793Z" fill="white"/>
<path d="M0 11.4826L7.63276 15.1719L7.7397 13.8352C7.7397 13.8352 16.9097 10.1993 19.3693 10.1993C21.8289 10.1993 21.8289 10.1993 21.8289 10.1993C21.8289 10.1993 29.6221 11.6296 32.1752 13.2203L32.9906 13.7283V15.8269L36.8805 13.6748L36.9875 22.2299H35.8111V25.6653L37.6692 23.8206L39.7679 25.9193V22.1764H38.645V12.5519L40.6368 11.5227L38.5916 10.2929V8.10062C38.5916 8.10062 37.8697 7.33868 36.9474 7.48572C36.025 7.63276 34.8487 8.24766 34.8487 8.24766L19.9842 0L0 11.4826Z" fill="white"/>
</svg>
