<svg width="141" height="113" viewBox="0 0 141 113" fill="none" xmlns="http://www.w3.org/2000/svg">
<path d="M108.594 22.8936C108.594 22.8936 107.72 19.4245 97.2998 19.0405C86.8924 18.6565 84.9592 22.9996 84.9592 22.9996L70.1161 64.6423C70.1161 64.6423 62.251 95.2422 42.6014 95.0568C22.9651 94.8847 19.4827 94.8847 19.4827 94.8847V72.812H44.0844C44.0844 72.812 49.9899 73.1563 51.9893 77.155C53.9887 81.1538 54.7699 82.9811 54.7699 87.2314V88.6482C54.7699 88.6482 61.1917 82.3455 65.0581 73.2622L67.8917 66.7609L62.7012 63.2653C62.7012 63.2653 65.0184 61.9015 66.978 59.73C68.9245 57.5584 73.3337 50.9115 71.8772 40.2658C70.4074 29.6068 61.1785 24.4031 61.1785 24.4031C61.1785 24.4031 57.0208 21.5431 49.169 21.5431C41.3171 21.5431 0.0185547 21.3444 0.0185547 21.3444V112.614H47.6462C47.6462 112.614 73.4529 111.754 81.0664 90.7932C88.6799 69.8328 96.651 43.6952 96.651 43.6952L116.393 102.406C116.393 102.406 118.988 115.567 140.982 112.455L108.594 22.8936ZM19.3768 38.5444L43.5548 38.6106C43.5548 38.6106 51.9496 38.465 51.9496 47.0054C51.9496 55.5458 44.9848 55.996 44.9848 55.996H19.3768V38.5444Z" fill="white"/>
<path d="M85.3168 20.4838C85.2771 20.4573 92.4669 17.7694 97.1542 18.0607C101.696 18.3387 108.065 20.3116 108.065 20.3116V14.2605C108.065 14.2605 103.272 11.1886 97.7633 11.1489C92.2551 11.1092 85.3168 14.0884 85.3168 14.0884V20.4838Z" fill="white"/>
<path d="M76.5776 11.374L84.1382 15.0285L84.2441 13.7044C84.2441 13.7044 93.3274 10.1028 95.7638 10.1028C98.2001 10.1028 98.2001 10.1028 98.2001 10.1028C98.2001 10.1028 105.92 11.5196 108.449 13.0953L109.256 13.5985V15.6773L113.109 13.5455L113.215 22.0197H112.05V25.4226L113.891 23.5954L115.969 25.6742V21.9667H114.857V12.4332L116.83 11.4137L114.804 10.1955V8.02401C114.804 8.02401 114.089 7.26928 113.176 7.41493C112.262 7.56058 111.097 8.16966 111.097 8.16966L96.3728 0L76.5776 11.374Z" fill="white"/>
</svg>
