<svg width="257" height="114" viewBox="0 0 257 114" fill="none" xmlns="http://www.w3.org/2000/svg">
<path d="M51.4031 28.5569C53.4865 29.0009 55.16 30.0426 56.4237 31.682C57.6874 33.2872 58.3192 35.1315 58.3192 37.2149C58.3192 40.2205 57.2605 42.6112 55.1429 44.3872C53.0595 46.1291 50.1394 47 46.3825 47H29.63V11.036H45.8189C49.4734 11.036 52.3252 11.8728 54.3745 13.5463C56.4579 15.2198 57.4995 17.4911 57.4995 20.36C57.4995 22.4775 56.936 24.2365 55.8089 25.6368C54.716 27.0371 53.2474 28.0105 51.4031 28.5569ZM38.3905 25.5855H44.1283C45.5628 25.5855 46.6557 25.2781 47.4071 24.6634C48.1926 24.0145 48.5854 23.0752 48.5854 21.8457C48.5854 20.6161 48.1926 19.6769 47.4071 19.028C46.6557 18.3791 45.5628 18.0546 44.1283 18.0546H38.3905V25.5855ZM44.8455 39.9302C46.3142 39.9302 47.4412 39.6057 48.2268 38.9568C49.0465 38.2737 49.4563 37.3003 49.4563 36.0366C49.4563 34.7729 49.0294 33.7825 48.1755 33.0652C47.3559 32.348 46.2117 31.9894 44.7431 31.9894H38.3905V39.9302H44.8455ZM67.1658 15.4418C65.6288 15.4418 64.3651 14.9978 63.3747 14.1098C62.4184 13.1877 61.9402 12.0606 61.9402 10.7286C61.9402 9.36245 62.4184 8.23538 63.3747 7.34738C64.3651 6.42522 65.6288 5.96414 67.1658 5.96414C68.6685 5.96414 69.8981 6.42522 70.8544 7.34738C71.8448 8.23538 72.3401 9.36245 72.3401 10.7286C72.3401 12.0606 71.8448 13.1877 70.8544 14.1098C69.8981 14.9978 68.6685 15.4418 67.1658 15.4418ZM71.5204 18.4132V47H62.7599V18.4132H71.5204ZM85.9891 9.08922V47H77.2286V9.08922H85.9891ZM96.1031 15.4418C94.5662 15.4418 93.3025 14.9978 92.3121 14.1098C91.3558 13.1877 90.8776 12.0606 90.8776 10.7286C90.8776 9.36245 91.3558 8.23538 92.3121 7.34738C93.3025 6.42522 94.5662 5.96414 96.1031 5.96414C97.6059 5.96414 98.8354 6.42522 99.7918 7.34738C100.782 8.23538 101.277 9.36245 101.277 10.7286C101.277 12.0606 100.782 13.1877 99.7918 14.1098C98.8354 14.9978 97.6059 15.4418 96.1031 15.4418ZM100.458 18.4132V47H91.6973V18.4132H100.458ZM142.642 18.1058C146.194 18.1058 149.012 19.1817 151.095 21.3334C153.213 23.4851 154.272 26.4735 154.272 30.2988V47H145.562V31.4771C145.562 29.6328 145.067 28.2154 144.077 27.2249C143.12 26.2003 141.788 25.688 140.081 25.688C138.373 25.688 137.024 26.2003 136.034 27.2249C135.077 28.2154 134.599 29.6328 134.599 31.4771V47H125.89V31.4771C125.89 29.6328 125.395 28.2154 124.404 27.2249C123.448 26.2003 122.116 25.688 120.408 25.688C118.7 25.688 117.351 26.2003 116.361 27.2249C115.405 28.2154 114.926 29.6328 114.926 31.4771V47H106.166V18.4132H114.926V21.9994C115.814 20.804 116.976 19.8648 118.41 19.1817C119.845 18.4645 121.467 18.1058 123.277 18.1058C125.429 18.1058 127.341 18.5669 129.015 19.4891C130.723 20.4112 132.055 21.7261 133.011 23.4338C134.001 21.8628 135.35 20.582 137.058 19.5915C138.766 18.6011 140.627 18.1058 142.642 18.1058ZM171.388 47.4098C168.894 47.4098 166.674 46.9829 164.728 46.1291C162.781 45.2752 161.244 44.114 160.117 42.6454C158.99 41.1426 158.358 39.4691 158.221 37.6248H166.879C166.982 38.6152 167.443 39.4178 168.262 40.0326C169.082 40.6474 170.09 40.9548 171.285 40.9548C172.378 40.9548 173.215 40.7498 173.795 40.34C174.41 39.896 174.718 39.3325 174.718 38.6494C174.718 37.8297 174.291 37.232 173.437 36.8563C172.583 36.4465 171.2 36.0025 169.287 35.5243C167.238 35.0462 165.53 34.5509 164.164 34.0386C162.798 33.4922 161.62 32.6554 160.629 31.5283C159.639 30.3671 159.143 28.8131 159.143 26.8663C159.143 25.2269 159.587 23.7412 160.475 22.4092C161.398 21.0431 162.73 19.9672 164.471 19.1817C166.247 18.3961 168.348 18.0034 170.773 18.0034C174.359 18.0034 177.177 18.8914 179.226 20.6674C181.309 22.4434 182.505 24.8 182.812 27.7372H174.718C174.581 26.7468 174.137 25.9612 173.386 25.3806C172.668 24.8 171.712 24.5097 170.517 24.5097C169.492 24.5097 168.706 24.7146 168.16 25.1245C167.614 25.5001 167.34 26.0295 167.34 26.7126C167.34 27.5323 167.767 28.1471 168.621 28.5569C169.509 28.9668 170.875 29.3766 172.72 29.7865C174.837 30.3329 176.562 30.8794 177.894 31.4258C179.226 31.9382 180.387 32.792 181.378 33.9874C182.402 35.1486 182.932 36.7197 182.966 38.7006C182.966 40.3742 182.488 41.8769 181.531 43.2089C180.609 44.5068 179.26 45.5314 177.484 46.2828C175.742 47.0342 173.71 47.4098 171.388 47.4098ZM214.632 32.2455C214.632 33.0652 214.581 33.9191 214.479 34.8071H194.652C194.789 36.5831 195.352 37.9492 196.343 38.9055C197.368 39.8277 198.614 40.2888 200.083 40.2888C202.269 40.2888 203.788 39.3666 204.642 37.5223H213.966C213.488 39.4008 212.617 41.0914 211.354 42.5942C210.124 44.0969 208.57 45.2752 206.692 46.1291C204.813 46.9829 202.713 47.4098 200.39 47.4098C197.59 47.4098 195.096 46.8122 192.91 45.6168C190.725 44.4214 189.017 42.7137 187.787 40.4937C186.558 38.2737 185.943 35.678 185.943 32.7066C185.943 29.7352 186.541 27.1395 187.736 24.9195C188.966 22.6995 190.673 20.9918 192.859 19.7965C195.045 18.6011 197.555 18.0034 200.39 18.0034C203.157 18.0034 205.616 18.584 207.767 19.7452C209.919 20.9065 211.593 22.5629 212.788 24.7146C214.018 26.8663 214.632 29.3766 214.632 32.2455ZM205.667 29.9402C205.667 28.4374 205.155 27.242 204.13 26.354C203.105 25.466 201.825 25.022 200.288 25.022C198.819 25.022 197.572 25.4489 196.548 26.3028C195.557 27.1566 194.943 28.3691 194.704 29.9402H205.667ZM227.374 9.08922V47H218.614V9.08922H227.374ZM43.8379 98.6474H30.4155L28.2638 105H19.0935L32.1061 69.036H42.2498L55.2624 105H45.9896L43.8379 98.6474ZM41.5838 91.8849L37.1267 78.7186L32.7209 91.8849H41.5838ZM76.0009 76.1058C79.3479 76.1058 82.0119 77.1988 83.9929 79.3846C86.0079 81.5363 87.0155 84.5077 87.0155 88.2988V105H78.3062V89.4771C78.3062 87.5645 77.811 86.0788 76.8206 85.02C75.8301 83.9612 74.4981 83.4318 72.8246 83.4318C71.151 83.4318 69.819 83.9612 68.8286 85.02C67.8381 86.0788 67.3429 87.5645 67.3429 89.4771V105H58.5824V76.4132H67.3429V80.2043C68.2309 78.9406 69.4262 77.9501 70.929 77.2329C72.4318 76.4815 74.1224 76.1058 76.0009 76.1058ZM109.932 105L101.223 93.012V105H92.4628V67.0892H101.223V88.0426L109.881 76.4132H120.691L108.805 90.7578L120.793 105H109.932ZM150.439 90.2455C150.439 91.0652 150.388 91.9191 150.285 92.8071H130.459C130.595 94.5831 131.159 95.9492 132.149 96.9055C133.174 97.8277 134.421 98.2888 135.889 98.2888C138.075 98.2888 139.595 97.3666 140.449 95.5223H149.773C149.295 97.4008 148.424 99.0914 147.16 100.594C145.93 102.097 144.376 103.275 142.498 104.129C140.62 104.983 138.519 105.41 136.197 105.41C133.396 105.41 130.903 104.812 128.717 103.617C126.531 102.421 124.823 100.714 123.594 98.4937C122.364 96.2737 121.75 93.678 121.75 90.7066C121.75 87.7352 122.347 85.1395 123.543 82.9195C124.772 80.6995 126.48 78.9918 128.666 77.7965C130.852 76.6011 133.362 76.0034 136.197 76.0034C138.963 76.0034 141.422 76.584 143.574 77.7452C145.726 78.9065 147.399 80.5629 148.594 82.7146C149.824 84.8663 150.439 87.3766 150.439 90.2455ZM141.473 87.9402C141.473 86.4374 140.961 85.242 139.936 84.354C138.912 83.466 137.631 83.022 136.094 83.022C134.626 83.022 133.379 83.4489 132.354 84.3028C131.364 85.1566 130.749 86.3691 130.51 87.9402H141.473ZM170.353 97.5715V105H165.896C162.719 105 160.243 104.232 158.467 102.695C156.691 101.124 155.803 98.5791 155.803 95.0612V83.688H152.319V76.4132H155.803V69.4458H164.564V76.4132H170.302V83.688H164.564V95.1637C164.564 96.0175 164.769 96.6323 165.178 97.008C165.588 97.3837 166.271 97.5715 167.228 97.5715H170.353ZM183.353 67.0892V105H174.592V67.0892H183.353ZM216.008 90.2455C216.008 91.0652 215.957 91.9191 215.854 92.8071H196.028C196.165 94.5831 196.728 95.9492 197.719 96.9055C198.743 97.8277 199.99 98.2888 201.459 98.2888C203.644 98.2888 205.164 97.3666 206.018 95.5223H215.342C214.864 97.4008 213.993 99.0914 212.729 100.594C211.5 102.097 209.946 103.275 208.067 104.129C206.189 104.983 204.088 105.41 201.766 105.41C198.965 105.41 196.472 104.812 194.286 103.617C192.1 102.421 190.393 100.714 189.163 98.4937C187.934 96.2737 187.319 93.678 187.319 90.7066C187.319 87.7352 187.917 85.1395 189.112 82.9195C190.342 80.6995 192.049 78.9918 194.235 77.7965C196.421 76.6011 198.931 76.0034 201.766 76.0034C204.532 76.0034 206.992 76.584 209.143 77.7452C211.295 78.9065 212.968 80.5629 214.164 82.7146C215.393 84.8663 216.008 87.3766 216.008 90.2455ZM207.043 87.9402C207.043 86.4374 206.53 85.242 205.506 84.354C204.481 83.466 203.2 83.022 201.664 83.022C200.195 83.022 198.948 83.4489 197.924 84.3028C196.933 85.1566 196.318 86.3691 196.079 87.9402H207.043ZM228.75 81.1777C229.774 79.6066 231.055 78.3771 232.592 77.4891C234.129 76.5669 235.837 76.1058 237.715 76.1058V85.3786H235.307C233.122 85.3786 231.482 85.8568 230.389 86.8131C229.296 87.7352 228.75 89.3746 228.75 91.7312V105H219.989V76.4132H228.75V81.1777Z" fill="white"/>
</svg>
