<svg width="154" height="78" viewBox="0 0 154 78" fill="none" xmlns="http://www.w3.org/2000/svg">
<circle cx="115.407" cy="39.4232" r="38.4749" fill="#226CE0"/>
<path d="M104.002 76.1692C98.4987 74.4611 93.4488 71.5384 89.226 67.6171C85.0031 63.6958 81.715 58.8759 79.6046 53.5135C77.4941 48.1511 76.6152 42.3831 77.0328 36.6354C77.4503 30.8878 79.1537 25.3074 82.017 20.3063C84.8804 15.3052 88.8305 11.0112 93.5759 7.74141C98.3212 4.47161 103.74 2.30954 109.433 1.41487C115.126 0.520193 120.947 0.915775 126.467 2.5724C131.986 4.22902 137.063 7.10436 141.323 10.9861L115.407 39.4232L104.002 76.1692Z" fill="#D963BF"/>
<path d="M89.8534 28.8653C89.897 28.1895 90.1549 27.6627 90.6272 27.2848C91.1068 26.907 91.7172 26.7181 92.4584 26.7181C92.967 26.7181 93.4067 26.8089 93.7773 26.9905C94.1479 27.1722 94.4276 27.4193 94.6165 27.7317C94.8055 28.0442 94.8999 28.3966 94.8999 28.789C94.8999 29.2395 94.78 29.6246 94.5402 29.9444C94.3004 30.2641 94.0134 30.4785 93.6792 30.5875V30.6311C94.1079 30.7618 94.4421 31.0016 94.6819 31.3504C94.9217 31.692 95.0416 32.1316 95.0416 32.6693C95.0416 33.098 94.9435 33.4795 94.7473 33.8138C94.5511 34.148 94.2605 34.4133 93.8754 34.6094C93.4902 34.7984 93.0288 34.8928 92.4911 34.8928C91.7063 34.8928 91.0596 34.693 90.5509 34.2934C90.0496 33.8864 89.7807 33.3051 89.7444 32.5494H90.9433C90.9724 32.9345 91.1214 33.2506 91.3902 33.4977C91.6591 33.7375 92.0224 33.8574 92.4802 33.8574C92.9235 33.8574 93.265 33.7375 93.5048 33.4977C93.7446 33.2506 93.8645 32.9345 93.8645 32.5494C93.8645 32.0407 93.701 31.6811 93.374 31.4703C93.0542 31.2523 92.5601 31.1433 91.8916 31.1433H91.6082V30.1188H91.9025C92.4911 30.1115 92.938 30.0134 93.2432 29.8245C93.5556 29.6355 93.7119 29.3376 93.7119 28.9307C93.7119 28.5819 93.5992 28.3058 93.374 28.1023C93.1487 27.8916 92.829 27.7862 92.4148 27.7862C92.0079 27.7862 91.6918 27.8916 91.4665 28.1023C91.2413 28.3058 91.1068 28.5601 91.0632 28.8653H89.8534ZM96.1943 33.1925V32.2551L99.8566 27.0014H101.361V32.1134H102.374V33.1925H101.361V34.8492H100.14V33.1925H96.1943ZM100.194 28.2658L97.6221 32.1134H100.194V28.2658ZM103.208 28.8217C103.208 28.2912 103.36 27.8771 103.666 27.5791C103.978 27.2739 104.378 27.1213 104.865 27.1213C105.351 27.1213 105.747 27.2739 106.053 27.5791C106.365 27.8771 106.521 28.2912 106.521 28.8217C106.521 29.3522 106.365 29.77 106.053 30.0752C105.747 30.3804 105.351 30.533 104.865 30.533C104.378 30.533 103.978 30.3804 103.666 30.0752C103.36 29.77 103.208 29.3522 103.208 28.8217ZM109.857 27.263L105.508 34.8492H104.287L108.636 27.263H109.857ZM104.865 27.8734C104.407 27.8734 104.178 28.1895 104.178 28.8217C104.178 29.4611 104.407 29.7809 104.865 29.7809C105.083 29.7809 105.25 29.7046 105.366 29.552C105.489 29.3921 105.551 29.1487 105.551 28.8217C105.551 28.1895 105.322 27.8734 104.865 27.8734ZM107.644 33.2797C107.644 32.7492 107.797 32.335 108.102 32.0371C108.414 31.7319 108.814 31.5793 109.301 31.5793C109.78 31.5793 110.173 31.7319 110.478 32.0371C110.79 32.335 110.947 32.7492 110.947 33.2797C110.947 33.8101 110.79 34.228 110.478 34.5332C110.173 34.8383 109.78 34.9909 109.301 34.9909C108.814 34.9909 108.414 34.8383 108.102 34.5332C107.797 34.228 107.644 33.8101 107.644 33.2797ZM109.29 32.3314C108.832 32.3314 108.603 32.6475 108.603 33.2797C108.603 33.9119 108.832 34.228 109.29 34.228C109.748 34.228 109.977 33.9119 109.977 33.2797C109.977 32.6475 109.748 32.3314 109.29 32.3314Z" fill="white"/>
<path d="M126.475 48.8708C126.395 48.5365 126.249 48.2858 126.039 48.1187C125.828 47.9516 125.534 47.868 125.156 47.868C124.582 47.868 124.153 48.0896 123.869 48.5329C123.586 48.9689 123.437 49.6955 123.423 50.7128C123.612 50.3931 123.888 50.146 124.251 49.9716C124.614 49.7972 125.007 49.71 125.428 49.71C125.908 49.71 126.329 49.8154 126.693 50.0261C127.063 50.2296 127.35 50.5275 127.554 50.9199C127.764 51.3123 127.87 51.781 127.87 52.326C127.87 52.8346 127.768 53.2888 127.565 53.6884C127.368 54.0881 127.074 54.4042 126.682 54.6367C126.289 54.862 125.817 54.9746 125.265 54.9746C124.516 54.9746 123.928 54.8111 123.499 54.4841C123.077 54.1499 122.78 53.6812 122.605 53.0781C122.438 52.4749 122.354 51.7229 122.354 50.8218C122.354 48.1623 123.292 46.8325 125.167 46.8325C125.893 46.8325 126.464 47.0287 126.878 47.4211C127.299 47.8135 127.546 48.2967 127.619 48.8708H126.475ZM125.156 50.7564C124.712 50.7564 124.335 50.8908 124.022 51.1597C123.717 51.4213 123.564 51.8028 123.564 52.3042C123.564 52.8056 123.706 53.2052 123.989 53.5031C124.28 53.7938 124.683 53.9391 125.199 53.9391C125.657 53.9391 126.017 53.7974 126.278 53.514C126.547 53.2307 126.682 52.8528 126.682 52.3805C126.682 51.8864 126.551 51.494 126.289 51.2033C126.035 50.9054 125.657 50.7564 125.156 50.7564ZM133.468 48.8708C133.388 48.5365 133.243 48.2858 133.032 48.1187C132.821 47.9516 132.527 47.868 132.149 47.868C131.575 47.868 131.146 48.0896 130.863 48.5329C130.579 48.9689 130.43 49.6955 130.416 50.7128C130.605 50.3931 130.881 50.146 131.244 49.9716C131.608 49.7972 132 49.71 132.421 49.71C132.901 49.71 133.322 49.8154 133.686 50.0261C134.056 50.2296 134.343 50.5275 134.547 50.9199C134.758 51.3123 134.863 51.781 134.863 52.326C134.863 52.8346 134.761 53.2888 134.558 53.6884C134.362 54.0881 134.067 54.4042 133.675 54.6367C133.283 54.862 132.81 54.9746 132.258 54.9746C131.509 54.9746 130.921 54.8111 130.492 54.4841C130.071 54.1499 129.773 53.6812 129.598 53.0781C129.431 52.4749 129.348 51.7229 129.348 50.8218C129.348 48.1623 130.285 46.8325 132.16 46.8325C132.886 46.8325 133.457 47.0287 133.871 47.4211C134.293 47.8135 134.54 48.2967 134.612 48.8708H133.468ZM132.149 50.7564C131.706 50.7564 131.328 50.8908 131.015 51.1597C130.71 51.4213 130.558 51.8028 130.558 52.3042C130.558 52.8056 130.699 53.2052 130.983 53.5031C131.273 53.7938 131.677 53.9391 132.193 53.9391C132.65 53.9391 133.01 53.7974 133.272 53.514C133.54 53.2307 133.675 52.8528 133.675 52.3805C133.675 51.8864 133.544 51.494 133.283 51.2033C133.028 50.9054 132.65 50.7564 132.149 50.7564ZM135.992 48.9471C135.992 48.4166 136.145 48.0024 136.45 47.7045C136.762 47.3993 137.162 47.2467 137.649 47.2467C138.136 47.2467 138.532 47.3993 138.837 47.7045C139.149 48.0024 139.306 48.4166 139.306 48.9471C139.306 49.4775 139.149 49.8953 138.837 50.2005C138.532 50.5057 138.136 50.6583 137.649 50.6583C137.162 50.6583 136.762 50.5057 136.45 50.2005C136.145 49.8953 135.992 49.4775 135.992 48.9471ZM142.641 47.3884L138.292 54.9746H137.071L141.42 47.3884H142.641ZM137.649 47.9988C137.191 47.9988 136.962 48.3149 136.962 48.9471C136.962 49.5865 137.191 49.9062 137.649 49.9062C137.867 49.9062 138.034 49.8299 138.15 49.6773C138.274 49.5175 138.336 49.2741 138.336 48.9471C138.336 48.3149 138.107 47.9988 137.649 47.9988ZM140.428 53.405C140.428 52.8746 140.581 52.4604 140.886 52.1625C141.199 51.8573 141.598 51.7047 142.085 51.7047C142.565 51.7047 142.957 51.8573 143.262 52.1625C143.575 52.4604 143.731 52.8746 143.731 53.405C143.731 53.9355 143.575 54.3533 143.262 54.6585C142.957 54.9637 142.565 55.1163 142.085 55.1163C141.598 55.1163 141.199 54.9637 140.886 54.6585C140.581 54.3533 140.428 53.9355 140.428 53.405ZM142.074 52.4568C141.616 52.4568 141.388 52.7729 141.388 53.405C141.388 54.0372 141.616 54.3533 142.074 54.3533C142.532 54.3533 142.761 54.0372 142.761 53.405C142.761 52.7729 142.532 52.4568 142.074 52.4568Z" fill="white"/>
<path d="M23.8633 28.7463L20.6143 24.9901V28.7463H19.2374V20.3521H20.6143V24.1808L23.8754 20.3521H25.6025L21.955 24.5552L25.6629 28.7463H23.8633ZM26.4216 25.3886C26.4216 24.7203 26.5585 24.1285 26.8322 23.6132C27.1141 23.0978 27.4925 22.6993 27.9676 22.4174C28.4507 22.1276 28.9821 21.9826 29.5619 21.9826C30.0853 21.9826 30.5402 22.0873 30.9267 22.2966C31.3213 22.498 31.6353 22.7516 31.8688 23.0576V22.0913H33.2578V28.7463H31.8688V27.7559C31.6353 28.07 31.3172 28.3317 30.9146 28.541C30.512 28.7504 30.0531 28.855 29.5377 28.855C28.966 28.855 28.4426 28.7101 27.9676 28.4202C27.4925 28.1223 27.1141 27.7116 26.8322 27.1883C26.5585 26.6568 26.4216 26.057 26.4216 25.3886ZM31.8688 25.4128C31.8688 24.9538 31.7722 24.5552 31.5789 24.2171C31.3937 23.8789 31.1481 23.6212 30.8422 23.4441C30.5362 23.2669 30.206 23.1783 29.8518 23.1783C29.4975 23.1783 29.1673 23.2669 28.8614 23.4441C28.5554 23.6132 28.3058 23.8668 28.1125 24.205C27.9273 24.5351 27.8347 24.9297 27.8347 25.3886C27.8347 25.8476 27.9273 26.2502 28.1125 26.5964C28.3058 26.9427 28.5554 27.2084 28.8614 27.3936C29.1754 27.5707 29.5055 27.6593 29.8518 27.6593C30.206 27.6593 30.5362 27.5707 30.8422 27.3936C31.1481 27.2164 31.3937 26.9588 31.5789 26.6206C31.7722 26.2744 31.8688 25.8718 31.8688 25.4128ZM34.6073 25.3886C34.6073 24.7203 34.7442 24.1285 35.018 23.6132C35.2998 23.0978 35.6782 22.6993 36.1533 22.4174C36.6364 22.1276 37.1719 21.9826 37.7597 21.9826C38.1945 21.9826 38.6213 22.0792 39.04 22.2725C39.4667 22.4577 39.8049 22.7073 40.0545 23.0213V19.8086H41.4435V28.7463H40.0545V27.7439C39.8291 28.0659 39.515 28.3317 39.1124 28.541C38.7179 28.7504 38.2629 28.855 37.7476 28.855C37.1679 28.855 36.6364 28.7101 36.1533 28.4202C35.6782 28.1223 35.2998 27.7116 35.018 27.1883C34.7442 26.6568 34.6073 26.057 34.6073 25.3886ZM40.0545 25.4128C40.0545 24.9538 39.9579 24.5552 39.7646 24.2171C39.5794 23.8789 39.3339 23.6212 39.0279 23.4441C38.7219 23.2669 38.3918 23.1783 38.0375 23.1783C37.6832 23.1783 37.3531 23.2669 37.0471 23.4441C36.7411 23.6132 36.4915 23.8668 36.2982 24.205C36.113 24.5351 36.0204 24.9297 36.0204 25.3886C36.0204 25.8476 36.113 26.2502 36.2982 26.5964C36.4915 26.9427 36.7411 27.2084 37.0471 27.3936C37.3611 27.5707 37.6912 27.6593 38.0375 27.6593C38.3918 27.6593 38.7219 27.5707 39.0279 27.3936C39.3339 27.2164 39.5794 26.9588 39.7646 26.6206C39.9579 26.2744 40.0545 25.8718 40.0545 25.4128ZM44.6289 22.0913V28.7463H43.252V22.0913H44.6289ZM49.7943 21.9826C50.3177 21.9826 50.7847 22.0913 51.1954 22.3087C51.6141 22.5261 51.9402 22.8482 52.1737 23.275C52.4072 23.7017 52.524 24.2171 52.524 24.821V28.7463H51.1592V25.0263C51.1592 24.4304 51.0102 23.9755 50.7123 23.6615C50.4144 23.3394 50.0077 23.1783 49.4924 23.1783C48.9771 23.1783 48.5664 23.3394 48.2604 23.6615C47.9625 23.9755 47.8135 24.4304 47.8135 25.0263V28.7463H46.4366V22.0913H47.8135V22.8522C48.039 22.5785 48.3248 22.3651 48.6711 22.2121C49.0254 22.0591 49.3998 21.9826 49.7943 21.9826Z" fill="#333333"/>
<path d="M58.4613 28.0315C59.2435 27.4033 59.8562 26.8891 60.2996 26.4888C60.743 26.0823 61.1156 25.6605 61.4174 25.2233C61.7253 24.7798 61.8792 24.3457 61.8792 23.9208C61.8792 23.5205 61.7807 23.2064 61.5836 22.9785C61.3927 22.7445 61.0817 22.6275 60.6507 22.6275C60.2319 22.6275 59.9055 22.7599 59.6715 23.0247C59.4436 23.2834 59.3204 23.6313 59.302 24.0686H58.4891C58.5137 23.3788 58.7231 22.8461 59.1172 22.4705C59.5114 22.0948 60.0194 21.907 60.6414 21.907C61.2757 21.907 61.7776 22.0825 62.1471 22.4335C62.5228 22.7845 62.7106 23.268 62.7106 23.8838C62.7106 24.3949 62.5567 24.8938 62.2487 25.3803C61.947 25.8606 61.6021 26.2856 61.2141 26.6551C60.8262 27.0184 60.3304 27.4433 59.7269 27.9299H62.9046V28.6319H58.4613V28.0315ZM64.9572 26.9137C65.0187 27.2648 65.1604 27.5357 65.3821 27.7266C65.6099 27.9175 65.9148 28.013 66.2966 28.013C66.8077 28.013 67.1834 27.8128 67.4236 27.4126C67.6699 27.0123 67.7869 26.3379 67.7746 25.3895C67.6453 25.6667 67.4297 25.8853 67.128 26.0454C66.8262 26.1994 66.4906 26.2763 66.1211 26.2763C65.7085 26.2763 65.339 26.1932 65.0126 26.0269C64.6923 25.8545 64.4399 25.6051 64.2551 25.2787C64.0704 24.9523 63.978 24.5581 63.978 24.0963C63.978 23.4373 64.1689 22.9077 64.5507 22.5074C64.9325 22.101 65.4745 21.8977 66.1765 21.8977C67.0387 21.8977 67.6422 22.1779 67.9871 22.7383C68.3381 23.2988 68.5136 24.1332 68.5136 25.2417C68.5136 26.0177 68.4428 26.6582 68.3012 27.1631C68.1657 27.6681 67.9317 28.053 67.5991 28.3178C67.2727 28.5826 66.8231 28.715 66.2504 28.715C65.6223 28.715 65.1327 28.5457 64.7816 28.207C64.4306 27.8683 64.2305 27.4372 64.1812 26.9137H64.9572ZM66.2597 25.565C66.6723 25.565 67.011 25.4388 67.2758 25.1863C67.5406 24.9276 67.673 24.5797 67.673 24.1425C67.673 23.6806 67.5437 23.308 67.285 23.0247C67.0264 22.7414 66.663 22.5998 66.195 22.5998C65.7639 22.5998 65.419 22.7353 65.1604 23.0062C64.9079 23.2772 64.7816 23.6344 64.7816 24.0778C64.7816 24.5274 64.9079 24.8876 65.1604 25.1586C65.4129 25.4296 65.7793 25.565 66.2597 25.565Z" fill="#828282"/>
<path d="M62.8215 52.3529H59.5791V54.4591C59.7207 54.262 59.9301 54.1019 60.2072 53.9787C60.4844 53.8494 60.7831 53.7847 61.1033 53.7847C61.6144 53.7847 62.0301 53.8925 62.3504 54.108C62.6706 54.3174 62.8985 54.5915 63.0339 54.9302C63.1756 55.2627 63.2464 55.6168 63.2464 55.9925C63.2464 56.4359 63.1633 56.8331 62.997 57.1841C62.8307 57.5352 62.5751 57.8123 62.2303 58.0155C61.8916 58.2187 61.4697 58.3204 60.9647 58.3204C60.3181 58.3204 59.7946 58.1541 59.3943 57.8215C58.994 57.489 58.7508 57.0456 58.6646 56.4913H59.4867C59.5668 56.8423 59.7361 57.1164 59.9948 57.3135C60.2534 57.5105 60.5798 57.6091 60.974 57.6091C61.4605 57.6091 61.8269 57.4643 62.0732 57.1749C62.3196 56.8793 62.4427 56.4913 62.4427 56.011C62.4427 55.5306 62.3196 55.1611 62.0732 54.9025C61.8269 54.6376 61.4636 54.5052 60.9832 54.5052C60.6568 54.5052 60.3704 54.5853 60.1241 54.7454C59.8839 54.8994 59.7084 55.1118 59.5976 55.3828H58.8031V51.6139H62.8215V52.3529ZM68.0862 53.212C67.9508 52.5284 67.5289 52.1866 66.8207 52.1866C66.2726 52.1866 65.8631 52.3991 65.5921 52.824C65.3211 53.2428 65.1887 53.9356 65.1949 54.9025C65.3365 54.5822 65.5705 54.3328 65.8969 54.1542C66.2295 53.9695 66.599 53.8771 67.0054 53.8771C67.6398 53.8771 68.1447 54.0742 68.5204 54.4683C68.9022 54.8624 69.0931 55.4074 69.0931 56.1033C69.0931 56.5221 69.01 56.8978 68.8437 57.2303C68.6836 57.5629 68.4373 57.8277 68.1047 58.0248C67.7783 58.2218 67.3811 58.3204 66.9131 58.3204C66.2788 58.3204 65.783 58.1787 65.4258 57.8954C65.0686 57.6121 64.8192 57.2211 64.6776 56.7223C64.5359 56.2234 64.4651 55.6076 64.4651 54.8747C64.4651 52.6146 65.2534 51.4846 66.8299 51.4846C67.4334 51.4846 67.9076 51.6478 68.2525 51.9742C68.5974 52.3005 68.8006 52.7132 68.8622 53.212H68.0862ZM66.8299 54.5884C66.5651 54.5884 66.3157 54.6438 66.0817 54.7547C65.8477 54.8593 65.6568 55.0225 65.509 55.2442C65.3673 55.4598 65.2965 55.7246 65.2965 56.0387C65.2965 56.5067 65.432 56.8885 65.7029 57.1841C65.9739 57.4736 66.3619 57.6183 66.8669 57.6183C67.298 57.6183 67.6398 57.4859 67.8922 57.2211C68.1509 56.9501 68.2802 56.5868 68.2802 56.1311C68.2802 55.6507 68.1571 55.275 67.9107 55.0041C67.6644 54.7269 67.3041 54.5884 66.8299 54.5884Z" fill="#828282"/>
<path d="M20.6143 51.0593V53.5233H23.513V54.6465H20.6143V57.2191H23.8754V58.3424H19.2374V49.9361H23.8754V51.0593H20.6143ZM26.9482 52.6536C27.1495 52.3155 27.4152 52.0538 27.7454 51.8686C28.0835 51.6753 28.4821 51.5787 28.9411 51.5787V53.0039H28.5908C28.0513 53.0039 27.6407 53.1408 27.3589 53.4146C27.0851 53.6883 26.9482 54.1634 26.9482 54.8398V58.3424H25.5713V51.6874H26.9482V52.6536ZM32.8398 55.0209L35.9076 58.3424H34.0476L31.5836 55.4799V58.3424H30.2067V49.4046H31.5836V54.5982L33.9993 51.6874H35.9076L32.8398 55.0209ZM42.9939 54.8518C42.9939 55.1015 42.9778 55.3269 42.9456 55.5282H37.8607C37.901 56.0597 38.0983 56.4864 38.4526 56.8085C38.8069 57.1306 39.2417 57.2916 39.757 57.2916C40.4978 57.2916 41.0212 56.9816 41.3271 56.3616H42.8128C42.6114 56.9736 42.2451 57.4768 41.7136 57.8714C41.1903 58.2579 40.538 58.4511 39.757 58.4511C39.1209 58.4511 38.5492 58.3102 38.0419 58.0284C37.5427 57.7385 37.1481 57.3359 36.8583 56.8206C36.5764 56.2972 36.4355 55.6933 36.4355 55.0089C36.4355 54.3244 36.5724 53.7246 36.8462 53.2092C37.128 52.6858 37.5185 52.2832 38.0178 52.0014C38.525 51.7196 39.1048 51.5787 39.757 51.5787C40.3851 51.5787 40.9447 51.7156 41.4359 51.9893C41.927 52.2631 42.3095 52.6496 42.5833 53.1488C42.857 53.64 42.9939 54.2077 42.9939 54.8518ZM41.5566 54.417C41.5486 53.9098 41.3674 53.5031 41.0131 53.1971C40.6588 52.8912 40.22 52.7382 39.6966 52.7382C39.2215 52.7382 38.8149 52.8912 38.4767 53.1971C38.1385 53.4951 37.9372 53.9017 37.8728 54.417H41.5566ZM46.9819 55.0209L50.0498 58.3424H48.1898L45.7258 55.4799V58.3424H44.3489V49.4046H45.7258V54.5982L48.1414 51.6874H50.0498L46.9819 55.0209Z" fill="#333333"/>
<rect x="0.57373" y="19.8896" width="10.6546" height="10.6546" rx="1.77576" fill="#D963BF"/>
<rect x="0.57373" y="49.4857" width="10.6546" height="10.6546" rx="1.77576" fill="#226CE0"/>
</svg>
