<svg width="259" height="130" viewBox="0 0 259 130" fill="none" xmlns="http://www.w3.org/2000/svg">
<circle cx="194" cy="65" r="65" fill="#226CE0"/>
<path d="M174.734 127.079C165.436 124.193 156.904 119.256 149.77 112.631C142.636 106.006 137.081 97.8636 133.516 88.8043C129.95 79.7449 128.465 70.0004 129.171 60.2902C129.876 50.5801 132.754 41.1525 137.591 32.7036C142.429 24.2547 149.102 17.0003 157.119 11.4763C165.136 5.95223 174.291 2.29959 183.909 0.788115C193.526 -0.723358 203.361 -0.055057 212.686 2.74366C222.01 5.54238 230.587 10.4 237.783 16.9579L194 65L174.734 127.079Z" fill="#D963BF"/>
<path d="M150.931 46.817C150.931 45.9208 151.189 45.2211 151.705 44.7178C152.232 44.2022 152.908 43.9444 153.73 43.9444C154.553 43.9444 155.222 44.2022 155.737 44.7178C156.265 45.2211 156.529 45.9208 156.529 46.817C156.529 47.7131 156.265 48.419 155.737 48.9346C155.222 49.4502 154.553 49.708 153.73 49.708C152.908 49.708 152.232 49.4502 151.705 48.9346C151.189 48.419 150.931 47.7131 150.931 46.817ZM162.164 44.1838L154.817 57H152.754L160.101 44.1838H162.164ZM153.73 45.215C152.957 45.215 152.57 45.749 152.57 46.817C152.57 47.8973 152.957 48.4374 153.73 48.4374C154.098 48.4374 154.381 48.3085 154.577 48.0507C154.786 47.7807 154.89 47.3694 154.89 46.817C154.89 45.749 154.504 45.215 153.73 45.215ZM158.426 54.3484C158.426 53.4522 158.684 52.7525 159.199 52.2492C159.727 51.7336 160.402 51.4758 161.225 51.4758C162.035 51.4758 162.698 51.7336 163.213 52.2492C163.741 52.7525 164.005 53.4522 164.005 54.3484C164.005 55.2445 163.741 55.9504 163.213 56.466C162.698 56.9816 162.035 57.2394 161.225 57.2394C160.402 57.2394 159.727 56.9816 159.199 56.466C158.684 55.9504 158.426 55.2445 158.426 54.3484ZM161.206 52.7463C160.433 52.7463 160.046 53.2803 160.046 54.3484C160.046 55.4164 160.433 55.9504 161.206 55.9504C161.98 55.9504 162.366 55.4164 162.366 54.3484C162.366 53.2803 161.98 52.7463 161.206 52.7463ZM174.537 45.3807H168.368V49.0451C168.626 48.7014 169.007 48.4129 169.51 48.1796C170.026 47.9464 170.572 47.8298 171.149 47.8298C172.18 47.8298 173.015 48.0507 173.653 48.4927C174.304 48.9346 174.764 49.4932 175.034 50.1684C175.317 50.8435 175.458 51.5556 175.458 52.3044C175.458 53.2128 175.28 54.023 174.924 54.7351C174.58 55.4348 174.058 55.9872 173.359 56.3923C172.671 56.7974 171.824 57 170.817 57C169.479 57 168.405 56.6685 167.595 56.0056C166.785 55.3427 166.3 54.465 166.14 53.3724H168.184C168.319 53.9494 168.62 54.4097 169.087 54.7535C169.553 55.0849 170.136 55.2507 170.836 55.2507C171.707 55.2507 172.358 54.9867 172.788 54.4588C173.23 53.931 173.451 53.2312 173.451 52.3596C173.451 51.4758 173.23 50.8006 172.788 50.3341C172.346 49.8553 171.695 49.6159 170.836 49.6159C170.234 49.6159 169.725 49.7694 169.307 50.0763C168.902 50.3709 168.608 50.776 168.424 51.2916H166.435V43.5393H174.537V45.3807ZM186.15 45.1965L181.031 57H178.914L184.088 45.4175H177.275V43.6313H186.15V45.1965Z" fill="white"/>
<path d="M205.536 80.817C205.536 79.9208 205.793 79.2211 206.309 78.7178C206.837 78.2022 207.512 77.9444 208.335 77.9444C209.157 77.9444 209.826 78.2022 210.342 78.7178C210.87 79.2211 211.133 79.9208 211.133 80.817C211.133 81.7131 210.87 82.419 210.342 82.9346C209.826 83.4502 209.157 83.708 208.335 83.708C207.512 83.708 206.837 83.4502 206.309 82.9346C205.793 82.419 205.536 81.7131 205.536 80.817ZM216.768 78.1838L209.421 91H207.359L214.706 78.1838H216.768ZM208.335 79.215C207.561 79.215 207.174 79.749 207.174 80.817C207.174 81.8973 207.561 82.4374 208.335 82.4374C208.703 82.4374 208.985 82.3085 209.182 82.0507C209.39 81.7807 209.495 81.3694 209.495 80.817C209.495 79.749 209.108 79.215 208.335 79.215ZM213.03 88.3484C213.03 87.4522 213.288 86.7525 213.804 86.2492C214.331 85.7336 215.007 85.4758 215.829 85.4758C216.639 85.4758 217.302 85.7336 217.818 86.2492C218.346 86.7525 218.61 87.4522 218.61 88.3484C218.61 89.2445 218.346 89.9504 217.818 90.466C217.302 90.9816 216.639 91.2394 215.829 91.2394C215.007 91.2394 214.331 90.9816 213.804 90.466C213.288 89.9504 213.03 89.2445 213.03 88.3484ZM215.811 86.7463C215.037 86.7463 214.651 87.2803 214.651 88.3484C214.651 89.4164 215.037 89.9504 215.811 89.9504C216.584 89.9504 216.971 89.4164 216.971 88.3484C216.971 87.2803 216.584 86.7463 215.811 86.7463ZM220.229 88.2011V86.6174L226.416 77.7418H228.957V86.3781H230.67V88.2011H228.957V91H226.895V88.2011H220.229ZM226.987 79.8779L222.641 86.3781H226.987V79.8779ZM232.372 80.8906C232.446 79.749 232.882 78.8589 233.68 78.2206C234.49 77.5822 235.521 77.2631 236.773 77.2631C237.633 77.2631 238.375 77.4165 239.002 77.7234C239.628 78.0303 240.1 78.4477 240.419 78.9756C240.739 79.5034 240.898 80.0988 240.898 80.7617C240.898 81.5229 240.696 82.1735 240.291 82.7136C239.885 83.2538 239.401 83.6159 238.836 83.8001V83.8737C239.56 84.0947 240.125 84.4998 240.53 85.0891C240.935 85.666 241.138 86.4087 241.138 87.3172C241.138 88.0415 240.972 88.686 240.64 89.2507C240.309 89.8154 239.818 90.2634 239.167 90.5949C238.517 90.9141 237.737 91.0737 236.829 91.0737C235.503 91.0737 234.41 90.7361 233.551 90.0609C232.704 89.3734 232.25 88.3913 232.188 87.1146H234.214C234.263 87.7652 234.515 88.2993 234.969 88.7166C235.423 89.1218 236.037 89.3243 236.81 89.3243C237.559 89.3243 238.136 89.1218 238.541 88.7166C238.946 88.2993 239.149 87.7652 239.149 87.1146C239.149 86.2553 238.873 85.6476 238.32 85.2916C237.78 84.9233 236.945 84.7392 235.816 84.7392H235.337V83.0083H235.834C236.829 82.996 237.584 82.8303 238.099 82.5111C238.627 82.1919 238.891 81.6886 238.891 81.0011C238.891 80.4119 238.701 79.9454 238.32 79.6016C237.94 79.2456 237.4 79.0676 236.7 79.0676C236.012 79.0676 235.478 79.2456 235.098 79.6016C234.717 79.9454 234.49 80.375 234.416 80.8906H232.372Z" fill="white"/>
<path d="M39.3454 48L33.8565 41.6541V48H31.5304V33.8186H33.8565V40.287L39.3658 33.8186H42.2837L36.1215 40.9195L42.3857 48H39.3454ZM43.6674 42.3274C43.6674 41.1984 43.8987 40.1985 44.3612 39.3279C44.8373 38.4573 45.4767 37.784 46.2793 37.3079C47.0954 36.8181 47.9933 36.5733 48.9727 36.5733C49.8569 36.5733 50.6255 36.7501 51.2784 37.1038C51.945 37.4439 52.4755 37.8724 52.87 38.3893V36.7569H55.2166V48H52.87V46.3268C52.4755 46.8573 51.9382 47.2994 51.258 47.6531C50.5779 48.0068 49.8025 48.1836 48.9319 48.1836C47.9661 48.1836 47.0818 47.9388 46.2793 47.4491C45.4767 46.9457 44.8373 46.252 44.3612 45.3678C43.8987 44.47 43.6674 43.4565 43.6674 42.3274ZM52.87 42.3683C52.87 41.5929 52.7068 40.9195 52.3803 40.3482C52.0674 39.7768 51.6525 39.3415 51.1356 39.0423C50.6187 38.743 50.061 38.5934 49.4624 38.5934C48.8639 38.5934 48.3061 38.743 47.7892 39.0423C47.2723 39.3279 46.8506 39.7564 46.5241 40.3278C46.2112 40.8855 46.0548 41.5521 46.0548 42.3274C46.0548 43.1028 46.2112 43.783 46.5241 44.3679C46.8506 44.9529 47.2723 45.4018 47.7892 45.7147C48.3197 46.0139 48.8775 46.1636 49.4624 46.1636C50.061 46.1636 50.6187 46.0139 51.1356 45.7147C51.6525 45.4154 52.0674 44.9801 52.3803 44.4087C52.7068 43.8238 52.87 43.1436 52.87 42.3683ZM57.4965 42.3274C57.4965 41.1984 57.7278 40.1985 58.1903 39.3279C58.6664 38.4573 59.3057 37.784 60.1083 37.3079C60.9245 36.8181 61.8291 36.5733 62.8222 36.5733C63.5567 36.5733 64.2777 36.7365 64.9851 37.063C65.7061 37.3759 66.2774 37.7976 66.6991 38.3281V32.9004H69.0457V48H66.6991V46.3064C66.3182 46.8505 65.7877 47.2994 65.1075 47.6531C64.441 48.0068 63.6724 48.1836 62.8018 48.1836C61.8223 48.1836 60.9245 47.9388 60.1083 47.4491C59.3057 46.9457 58.6664 46.252 58.1903 45.3678C57.7278 44.47 57.4965 43.4565 57.4965 42.3274ZM66.6991 42.3683C66.6991 41.5929 66.5359 40.9195 66.2094 40.3482C65.8965 39.7768 65.4816 39.3415 64.9647 39.0423C64.4478 38.743 63.89 38.5934 63.2915 38.5934C62.6929 38.5934 62.1352 38.743 61.6183 39.0423C61.1014 39.3279 60.6797 39.7564 60.3532 40.3278C60.0403 40.8855 59.8839 41.5521 59.8839 42.3274C59.8839 43.1028 60.0403 43.783 60.3532 44.3679C60.6797 44.9529 61.1014 45.4018 61.6183 45.7147C62.1488 46.0139 62.7065 46.1636 63.2915 46.1636C63.89 46.1636 64.4478 46.0139 64.9647 45.7147C65.4816 45.4154 65.8965 44.9801 66.2094 44.4087C66.5359 43.8238 66.6991 43.1436 66.6991 42.3683ZM74.4271 36.7569V48H72.101V36.7569H74.4271ZM83.1537 36.5733C84.0379 36.5733 84.8269 36.7569 85.5207 37.1242C86.228 37.4915 86.779 38.0356 87.1735 38.7566C87.5679 39.4776 87.7652 40.3482 87.7652 41.3684V48H85.4594V41.7153C85.4594 40.7087 85.2078 39.9401 84.7045 39.4096C84.2011 38.8654 83.5142 38.5934 82.6436 38.5934C81.773 38.5934 81.0792 38.8654 80.5623 39.4096C80.059 39.9401 79.8073 40.7087 79.8073 41.7153V48H77.4811V36.7569H79.8073V38.0424C80.1882 37.5799 80.6711 37.2194 81.256 36.961C81.8546 36.7025 82.4871 36.5733 83.1537 36.5733Z" fill="#333333"/>
<path d="M99.593 37.0121V35.7168H102.527V47H101.091V37.0121H99.593ZM106.792 43.9724C106.896 44.5655 107.136 45.0232 107.51 45.3458C107.895 45.6683 108.41 45.8295 109.055 45.8295C109.919 45.8295 110.553 45.4914 110.959 44.8152C111.375 44.1389 111.573 42.9996 111.552 41.3974C111.334 41.8656 110.97 42.2349 110.46 42.5055C109.95 42.7656 109.383 42.8956 108.759 42.8956C108.062 42.8956 107.437 42.7552 106.886 42.4742C106.345 42.1829 105.918 41.7616 105.606 41.2102C105.294 40.6587 105.138 39.9929 105.138 39.2126C105.138 38.0993 105.461 37.2046 106.106 36.5283C106.751 35.8417 107.666 35.4983 108.852 35.4983C110.309 35.4983 111.328 35.9717 111.911 36.9185C112.504 37.8653 112.801 39.275 112.801 41.1477C112.801 42.4586 112.681 43.5407 112.442 44.3938C112.213 45.2469 111.817 45.8972 111.256 46.3445C110.704 46.7919 109.945 47.0156 108.977 47.0156C107.916 47.0156 107.089 46.7295 106.496 46.1573C105.903 45.5851 105.565 44.8568 105.481 43.9724H106.792ZM108.993 41.6939C109.69 41.6939 110.262 41.4807 110.709 41.0541C111.157 40.6171 111.38 40.0293 111.38 39.2906C111.38 38.5103 111.162 37.8809 110.725 37.4023C110.288 36.9237 109.674 36.6844 108.884 36.6844C108.155 36.6844 107.573 36.9133 107.136 37.3711C106.709 37.8288 106.496 38.4323 106.496 39.1814C106.496 39.9409 106.709 40.5495 107.136 41.0073C107.562 41.4651 108.181 41.6939 108.993 41.6939Z" fill="#828282"/>
<path d="M99.593 87.0121V85.7168H102.527V97H101.091V87.0121H99.593ZM104.623 94.4874V93.4106L110.101 85.8261H111.802V93.2545H113.362V94.4874H111.802V97H110.397V94.4874H104.623ZM110.46 87.3086L106.262 93.2545H110.46V87.3086Z" fill="#828282"/>
<path d="M33.8565 85.6959V89.8585H38.7537V91.7561H33.8565V96.1023H39.3658V98H31.5304V83.7982H39.3658V85.6959H33.8565ZM44.5571 88.3893C44.8972 87.818 45.3461 87.3759 45.9038 87.063C46.4752 86.7365 47.1485 86.5733 47.9239 86.5733V88.9811H47.3322C46.4208 88.9811 45.727 89.2123 45.2509 89.6748C44.7884 90.1373 44.5571 90.9399 44.5571 92.0826V98H42.231V86.7569H44.5571V88.3893ZM54.5104 92.3887L59.6932 98H56.5509L52.3883 93.164V98H50.0621V82.9004H52.3883V91.6745L56.4692 86.7569H59.6932L54.5104 92.3887ZM71.665 92.103C71.665 92.5247 71.6378 92.9056 71.5833 93.2457H62.9929C63.0609 94.1435 63.3942 94.8645 63.9927 95.4086C64.5913 95.9527 65.3259 96.2248 66.1965 96.2248C67.448 96.2248 68.3322 95.7011 68.8491 94.6536H71.3589C71.0188 95.6874 70.3999 96.5377 69.5021 97.2042C68.6178 97.8572 67.516 98.1836 66.1965 98.1836C65.1218 98.1836 64.156 97.9456 63.299 97.4695C62.4556 96.9798 61.789 96.2996 61.2993 95.429C60.8232 94.5448 60.5851 93.5245 60.5851 92.3683C60.5851 91.212 60.8164 90.1985 61.2789 89.3279C61.755 88.4437 62.4148 87.7636 63.2582 87.2874C64.1152 86.8113 65.0946 86.5733 66.1965 86.5733C67.2575 86.5733 68.2029 86.8045 69.0327 87.267C69.8625 87.7296 70.5087 88.3825 70.9712 89.2259C71.4337 90.0557 71.665 91.0147 71.665 92.103ZM69.2368 91.3684C69.2232 90.5114 68.9171 89.8245 68.3186 89.3075C67.72 88.7906 66.9787 88.5321 66.0944 88.5321C65.2918 88.5321 64.6049 88.7906 64.0335 89.3075C63.4622 89.8108 63.1221 90.4978 63.0133 91.3684H69.2368ZM78.4024 92.3887L83.5852 98H80.4429L76.2803 93.164V98H73.9541V82.9004H76.2803V91.6745L80.3613 86.7569H83.5852L78.4024 92.3887Z" fill="#333333"/>
<rect y="32" width="18" height="18" rx="3" fill="#D963BF"/>
<rect y="82" width="18" height="18" rx="3" fill="#226CE0"/>
</svg>
