<svg width="324" height="124" viewBox="0 0 324 124" fill="none" xmlns="http://www.w3.org/2000/svg">
<g filter="url(#filter0_d_26_800)">
<rect x="101.137" y="7.10693" width="213.863" height="13.6957" rx="6.84783" fill="white"/>
</g>
<rect x="101.137" y="7.10693" width="121.154" height="13.6957" rx="6.84783" fill="#226CE0"/>
<g filter="url(#filter1_d_26_800)">
<rect x="101.137" y="37.6587" width="213.863" height="13.6957" rx="6.84783" fill="white"/>
</g>
<rect x="101.137" y="37.6587" width="57.9431" height="13.6957" rx="6.84783" fill="#226CE0"/>
<g filter="url(#filter2_d_26_800)">
<rect x="101.137" y="68.2107" width="213.863" height="13.6957" rx="6.84783" fill="white"/>
</g>
<rect x="101.137" y="68.2107" width="147.492" height="13.6957" rx="6.84783" fill="#226CE0"/>
<g filter="url(#filter3_d_26_800)">
<rect x="101.137" y="98.7625" width="213.863" height="13.6957" rx="6.84783" fill="white"/>
</g>
<rect x="101.137" y="98.7625" width="43.194" height="13.6957" rx="6.84783" fill="#226CE0"/>
<path d="M6.69823 12.2636C6.48963 11.8619 6.19992 11.5606 5.82908 11.3597C5.45824 11.1511 5.02946 11.0468 4.54274 11.0468C4.00967 11.0468 3.53453 11.1666 3.11734 11.4061C2.70015 11.6456 2.37181 11.9855 2.13231 12.4259C1.90054 12.8662 1.78465 13.3761 1.78465 13.9556C1.78465 14.535 1.90054 15.0488 2.13231 15.4969C2.37181 15.9372 2.70015 16.2772 3.11734 16.5167C3.53453 16.7562 4.00967 16.8759 4.54274 16.8759C5.26124 16.8759 5.84453 16.675 6.29263 16.2733C6.74072 15.8716 7.01498 15.3269 7.11542 14.6393H4.09079V13.5847H8.52923V14.6161C8.44425 15.2419 8.2202 15.8175 7.85709 16.3428C7.50171 16.8682 7.0343 17.2892 6.45487 17.606C5.88316 17.915 5.24579 18.0695 4.54274 18.0695C3.78562 18.0695 3.09416 17.8957 2.46838 17.548C1.84259 17.1927 1.34428 16.7021 0.973445 16.0763C0.610334 15.4505 0.428779 14.7436 0.428779 13.9556C0.428779 13.1675 0.610334 12.4606 0.973445 11.8348C1.34428 11.2091 1.84259 10.7223 2.46838 10.3747C3.10189 10.0193 3.79334 9.84161 4.54274 9.84161C5.4003 9.84161 6.16129 10.0541 6.8257 10.479C7.49784 10.8962 7.98457 11.4911 8.28587 12.2636H6.69823ZM11.1533 12.5418C11.3465 12.2173 11.6014 11.9662 11.9182 11.7885C12.2427 11.6031 12.6251 11.5104 13.0655 11.5104V12.8778H12.7294C12.2118 12.8778 11.8177 13.0092 11.5473 13.2718C11.2847 13.5345 11.1533 13.9903 11.1533 14.6393V18H9.83223V11.6147H11.1533V12.5418ZM20.1321 14.6509C20.1321 14.8904 20.1166 15.1067 20.0857 15.2998H15.2069C15.2455 15.8097 15.4348 16.2192 15.7747 16.5282C16.1147 16.8373 16.5319 16.9918 17.0263 16.9918C17.7371 16.9918 18.2393 16.6943 18.5328 16.0995H19.9582C19.7651 16.6866 19.4136 17.1695 18.9037 17.548C18.4015 17.9189 17.7757 18.1043 17.0263 18.1043C16.416 18.1043 15.8675 17.9691 15.3807 17.6987C14.9017 17.4206 14.5232 17.0343 14.245 16.5398C13.9746 16.0377 13.8394 15.4582 13.8394 14.8015C13.8394 14.1448 13.9708 13.5693 14.2335 13.0748C14.5039 12.5727 14.8786 12.1864 15.3576 11.916C15.8443 11.6456 16.4005 11.5104 17.0263 11.5104C17.6289 11.5104 18.1659 11.6417 18.6371 11.9044C19.1084 12.1671 19.4754 12.5379 19.7381 13.0169C20.0007 13.4882 20.1321 14.0328 20.1321 14.6509ZM18.753 14.2337C18.7453 13.747 18.5715 13.3568 18.2315 13.0632C17.8916 12.7697 17.4706 12.6229 16.9684 12.6229C16.5126 12.6229 16.1224 12.7697 15.7979 13.0632C15.4734 13.3491 15.2803 13.7392 15.2185 14.2337H18.753ZM27.1801 11.6147L23.2632 21.0015H21.8957L23.1936 17.8957L20.6789 11.6147H22.1507L23.9469 16.4819L25.8127 11.6147H27.1801ZM30.8541 12.6924H29.672V18H28.3394V12.6924H27.5861V11.6147H28.3394V11.1627C28.3394 10.4288 28.5325 9.89569 28.9188 9.56348C29.3128 9.22355 29.927 9.05358 30.7614 9.05358V10.1545C30.3596 10.1545 30.0777 10.2318 29.9154 10.3863C29.7532 10.5331 29.672 10.7919 29.672 11.1627V11.6147H30.8541V12.6924ZM37.8076 11.6147V18H36.4865V17.2467C36.2779 17.5094 36.0037 17.718 35.6637 17.8725C35.3315 18.0193 34.9761 18.0927 34.5976 18.0927C34.0954 18.0927 33.6434 17.9884 33.2417 17.7798C32.8477 17.5712 32.5348 17.2622 32.303 16.8527C32.079 16.4433 31.967 15.9488 31.967 15.3694V11.6147H33.2765V15.1724C33.2765 15.7441 33.4194 16.1844 33.7053 16.4935C33.9911 16.7948 34.3813 16.9454 34.8757 16.9454C35.3702 16.9454 35.7603 16.7948 36.0462 16.4935C36.3397 16.1844 36.4865 15.7441 36.4865 15.1724V11.6147H37.8076ZM40.8718 12.5418C41.065 12.2173 41.3199 11.9662 41.6367 11.7885C41.9612 11.6031 42.3436 11.5104 42.7839 11.5104V12.8778H42.4479C41.9303 12.8778 41.5362 13.0092 41.2658 13.2718C41.0032 13.5345 40.8718 13.9903 40.8718 14.6393V18H39.5507V11.6147H40.8718V12.5418ZM45.5396 12.6924V16.2269C45.5396 16.4664 45.5937 16.6403 45.7018 16.7484C45.8177 16.8489 46.0109 16.8991 46.2813 16.8991H47.0925V18H46.0495C45.4546 18 44.9988 17.8609 44.682 17.5828C44.3653 17.3047 44.2069 16.8527 44.2069 16.2269V12.6924H43.4536V11.6147H44.2069V10.027H45.5396V11.6147H47.0925V12.6924H45.5396Z" fill="#333333"/>
<path d="M58.3837 10.5373V9.69912H60.2822V17H59.3531V10.5373H58.3837ZM66.5158 10.4969H62.9714V12.7992C63.1262 12.5838 63.3551 12.4088 63.6581 12.2741C63.961 12.1327 64.2875 12.0621 64.6376 12.0621C65.1963 12.0621 65.6507 12.1799 66.0008 12.4155C66.3509 12.6444 66.6 12.944 66.7481 13.3142C66.9029 13.6777 66.9803 14.0648 66.9803 14.4755C66.9803 14.9602 66.8894 15.3944 66.7077 15.7781C66.5259 16.1619 66.2465 16.4648 65.8695 16.687C65.4993 16.9091 65.0381 17.0202 64.4861 17.0202C63.7792 17.0202 63.207 16.8384 62.7694 16.4749C62.3318 16.1114 62.0659 15.6267 61.9717 15.0208H62.8704C62.9579 15.4045 63.1431 15.7041 63.4258 15.9195C63.7085 16.1349 64.0653 16.2426 64.4962 16.2426C65.028 16.2426 65.4286 16.0844 65.6979 15.768C65.9671 15.4449 66.1018 15.0208 66.1018 14.4957C66.1018 13.9706 65.9671 13.5667 65.6979 13.2839C65.4286 12.9944 65.0314 12.8497 64.5063 12.8497C64.1495 12.8497 63.8365 12.9372 63.5672 13.1123C63.3046 13.2806 63.1128 13.5128 62.9916 13.809H62.1232V9.68902H66.5158V10.4969Z" fill="#828282"/>
<path d="M59.8075 47.041C59.8749 47.4247 60.0297 47.7209 60.2721 47.9296C60.5211 48.1383 60.8544 48.2426 61.2718 48.2426C61.8305 48.2426 62.2412 48.0239 62.5037 47.5863C62.773 47.1487 62.9009 46.4115 62.8875 45.3748C62.7461 45.6777 62.5105 45.9167 62.1806 46.0918C61.8507 46.2601 61.4838 46.3442 61.0799 46.3442C60.6289 46.3442 60.2249 46.2533 59.8681 46.0716C59.5181 45.8831 59.2421 45.6104 59.0401 45.2536C58.8381 44.8968 58.7372 44.466 58.7372 43.9611C58.7372 43.2408 58.9458 42.6618 59.3632 42.2242C59.7806 41.7799 60.373 41.5577 61.1405 41.5577C62.083 41.5577 62.7427 41.8641 63.1197 42.4767C63.5034 43.0893 63.6953 44.0015 63.6953 45.2132C63.6953 46.0615 63.6179 46.7616 63.463 47.3136C63.3149 47.8657 63.0591 48.2864 62.6956 48.5759C62.3388 48.8654 61.8474 49.0101 61.2213 49.0101C60.5346 49.0101 59.9994 48.825 59.6157 48.4547C59.232 48.0844 59.0132 47.6132 58.9593 47.041H59.8075ZM61.2314 45.5667C61.6824 45.5667 62.0527 45.4287 62.3422 45.1526C62.6316 44.8699 62.7764 44.4895 62.7764 44.0116C62.7764 43.5067 62.635 43.0994 62.3523 42.7897C62.0695 42.48 61.6723 42.3252 61.1607 42.3252C60.6894 42.3252 60.3125 42.4733 60.0297 42.7695C59.7537 43.0657 59.6157 43.4562 59.6157 43.9409C59.6157 44.4323 59.7537 44.8261 60.0297 45.1224C60.3057 45.4186 60.7063 45.5667 61.2314 45.5667Z" fill="#828282"/>
<path d="M71.515 77.2628C72.37 76.5762 73.0398 76.0141 73.5245 75.5765C74.0092 75.1322 74.4165 74.671 74.7464 74.193C75.083 73.7083 75.2513 73.2337 75.2513 72.7692C75.2513 72.3316 75.1436 71.9883 74.9281 71.7392C74.7194 71.4834 74.3795 71.3555 73.9082 71.3555C73.4505 71.3555 73.0937 71.5002 72.8378 71.7897C72.5888 72.0725 72.4541 72.4528 72.4339 72.9308H71.5453C71.5722 72.1768 71.8011 71.5945 72.232 71.1838C72.6628 70.7732 73.2182 70.5678 73.8981 70.5678C74.5915 70.5678 75.1402 70.7597 75.5441 71.1434C75.9548 71.5272 76.1601 72.0556 76.1601 72.7288C76.1601 73.2876 75.9918 73.8329 75.6552 74.3647C75.3253 74.8898 74.9483 75.3543 74.5242 75.7582C74.1001 76.1554 73.5582 76.6199 72.8984 77.1518H76.3722V77.9192H71.515V77.2628ZM77.4344 74.2738C77.4344 73.1159 77.6229 72.2138 77.9999 71.5675C78.3769 70.9145 79.0366 70.588 79.9791 70.588C80.9149 70.588 81.5713 70.9145 81.9482 71.5675C82.3252 72.2138 82.5137 73.1159 82.5137 74.2738C82.5137 75.4519 82.3252 76.3675 81.9482 77.0205C81.5713 77.6735 80.9149 78 79.9791 78C79.0366 78 78.3769 77.6735 77.9999 77.0205C77.6229 76.3675 77.4344 75.4519 77.4344 74.2738ZM81.6049 74.2738C81.6049 73.6881 81.5645 73.1933 81.4837 72.7894C81.4097 72.3788 81.2515 72.0489 81.0091 71.7998C80.7735 71.5507 80.4302 71.4262 79.9791 71.4262C79.5214 71.4262 79.1713 71.5507 78.9289 71.7998C78.6933 72.0489 78.5351 72.3788 78.4543 72.7894C78.3803 73.1933 78.3432 73.6881 78.3432 74.2738C78.3432 74.8797 78.3803 75.388 78.4543 75.7986C78.5351 76.2093 78.6933 76.5392 78.9289 76.7882C79.1713 77.0373 79.5214 77.1619 79.9791 77.1619C80.4302 77.1619 80.7735 77.0373 81.0091 76.7882C81.2515 76.5392 81.4097 76.2093 81.4837 75.7986C81.5645 75.388 81.6049 74.8797 81.6049 74.2738Z" fill="#828282"/>
<path d="M44.2813 102.497H40.7369V104.799C40.8917 104.584 41.1206 104.409 41.4235 104.274C41.7265 104.133 42.053 104.062 42.403 104.062C42.9618 104.062 43.4162 104.18 43.7663 104.415C44.1163 104.644 44.3654 104.944 44.5135 105.314C44.6684 105.678 44.7458 106.065 44.7458 106.475C44.7458 106.96 44.6549 107.394 44.4731 107.778C44.2914 108.162 44.012 108.465 43.635 108.687C43.2647 108.909 42.8036 109.02 42.2516 109.02C41.5447 109.02 40.9725 108.838 40.5349 108.475C40.0973 108.111 39.8314 107.627 39.7372 107.021H40.6359C40.7234 107.405 40.9085 107.704 41.1913 107.92C41.474 108.135 41.8308 108.243 42.2617 108.243C42.7935 108.243 43.1941 108.084 43.4633 107.768C43.7326 107.445 43.8673 107.021 43.8673 106.496C43.8673 105.971 43.7326 105.567 43.4633 105.284C43.1941 104.994 42.7969 104.85 42.2718 104.85C41.915 104.85 41.6019 104.937 41.3326 105.112C41.0701 105.281 40.8782 105.513 40.7571 105.809H39.8886V101.689H44.2813V102.497Z" fill="#828282"/>
<path d="M6.50122 42.8965C6.50122 43.306 6.40465 43.6923 6.2115 44.0554C6.01836 44.4185 5.70933 44.7159 5.28441 44.9477C4.8595 45.1717 4.31483 45.2838 3.65042 45.2838H2.19025V48.5518H0.869147V40.4977H3.65042C4.26848 40.4977 4.78997 40.6058 5.21488 40.8221C5.64753 41.0307 5.96814 41.3166 6.17674 41.6797C6.39306 42.0428 6.50122 42.4484 6.50122 42.8965ZM3.65042 44.206C4.15259 44.206 4.52729 44.094 4.77452 43.87C5.02174 43.6382 5.14535 43.3137 5.14535 42.8965C5.14535 42.0158 4.64704 41.5754 3.65042 41.5754H2.19025V44.206H3.65042ZM10.5309 48.6561C9.92829 48.6561 9.38362 48.5209 8.8969 48.2505C8.41017 47.9723 8.02775 47.586 7.74962 47.0916C7.4715 46.5894 7.33243 46.01 7.33243 45.3533C7.33243 44.7043 7.47536 44.1288 7.76121 43.6266C8.04706 43.1244 8.43722 42.7381 8.93166 42.4677C9.42611 42.1973 9.9785 42.0621 10.5888 42.0621C11.1992 42.0621 11.7516 42.1973 12.246 42.4677C12.7405 42.7381 13.1306 43.1244 13.4165 43.6266C13.7023 44.1288 13.8452 44.7043 13.8452 45.3533C13.8452 46.0023 13.6985 46.5778 13.4049 47.08C13.1113 47.5822 12.7096 47.9723 12.1997 48.2505C11.6975 48.5209 11.1412 48.6561 10.5309 48.6561ZM10.5309 47.5088C10.8708 47.5088 11.1876 47.4277 11.4812 47.2654C11.7825 47.1032 12.0258 46.8598 12.2112 46.5353C12.3967 46.2109 12.4894 45.8168 12.4894 45.3533C12.4894 44.8898 12.4005 44.4996 12.2228 44.1828C12.0451 43.8584 11.8095 43.615 11.5159 43.4528C11.2223 43.2905 10.9056 43.2094 10.5657 43.2094C10.2257 43.2094 9.90897 43.2905 9.61539 43.4528C9.32954 43.615 9.10163 43.8584 8.93166 44.1828C8.7617 44.4996 8.67671 44.8898 8.67671 45.3533C8.67671 46.0409 8.85054 46.574 9.1982 46.9525C9.55359 47.3234 9.99782 47.5088 10.5309 47.5088ZM16.4723 43.0935C16.6655 42.769 16.9204 42.5179 17.2372 42.3403C17.5617 42.1548 17.9441 42.0621 18.3845 42.0621V43.4296H18.0484C17.5308 43.4296 17.1367 43.5609 16.8663 43.8236C16.6037 44.0863 16.4723 44.5421 16.4723 45.1911V48.5518H15.1512V42.1664H16.4723V43.0935ZM21.1401 43.2442V46.7787C21.1401 47.0182 21.1942 47.192 21.3023 47.3002C21.4182 47.4006 21.6114 47.4508 21.8818 47.4508H22.693V48.5518H21.65C21.0551 48.5518 20.5993 48.4127 20.2825 48.1346C19.9658 47.8564 19.8074 47.4045 19.8074 46.7787V43.2442H19.0541V42.1664H19.8074V40.5788H21.1401V42.1664H22.693V43.2442H21.1401ZM23.4702 45.3301C23.4702 44.6889 23.6016 44.121 23.8642 43.6266C24.1346 43.1321 24.4978 42.7497 24.9536 42.4793C25.4171 42.2012 25.927 42.0621 26.4833 42.0621C26.9854 42.0621 27.422 42.1626 27.7928 42.3634C28.1714 42.5566 28.4727 42.7999 28.6967 43.0935V42.1664H30.0294V48.5518H28.6967V47.6015C28.4727 47.9028 28.1675 48.1539 27.7812 48.3548C27.3949 48.5556 26.9545 48.6561 26.4601 48.6561C25.9116 48.6561 25.4094 48.517 24.9536 48.2389C24.4978 47.953 24.1346 47.559 23.8642 47.0568C23.6016 46.5469 23.4702 45.9714 23.4702 45.3301ZM28.6967 45.3533C28.6967 44.9129 28.604 44.5305 28.4186 44.206C28.2409 43.8815 28.0052 43.6343 27.7117 43.4644C27.4181 43.2944 27.1013 43.2094 26.7614 43.2094C26.4215 43.2094 26.1047 43.2944 25.8111 43.4644C25.5176 43.6266 25.2781 43.87 25.0926 44.1944C24.9149 44.5112 24.8261 44.8898 24.8261 45.3301C24.8261 45.7705 24.9149 46.1568 25.0926 46.489C25.2781 46.8212 25.5176 47.0761 25.8111 47.2538C26.1124 47.4238 26.4292 47.5088 26.7614 47.5088C27.1013 47.5088 27.4181 47.4238 27.7117 47.2538C28.0052 47.0839 28.2409 46.8366 28.4186 46.5122C28.604 46.18 28.6967 45.7937 28.6967 45.3533ZM34.2909 45.3649L37.2344 48.5518H35.4498L33.0857 45.8053V48.5518H31.7646V39.9762H33.0857V44.9593L35.4034 42.1664H37.2344L34.2909 45.3649ZM37.741 45.3301C37.741 44.6889 37.8723 44.121 38.135 43.6266C38.4054 43.1321 38.7685 42.7497 39.2243 42.4793C39.6879 42.2012 40.1978 42.0621 40.754 42.0621C41.2562 42.0621 41.6927 42.1626 42.0636 42.3634C42.4421 42.5566 42.7434 42.7999 42.9675 43.0935V42.1664H44.3002V48.5518H42.9675V47.6015C42.7434 47.9028 42.4383 48.1539 42.052 48.3548C41.6657 48.5556 41.2253 48.6561 40.7309 48.6561C40.1823 48.6561 39.6802 48.517 39.2243 48.2389C38.7685 47.953 38.4054 47.559 38.135 47.0568C37.8723 46.5469 37.741 45.9714 37.741 45.3301ZM42.9675 45.3533C42.9675 44.9129 42.8748 44.5305 42.6893 44.206C42.5116 43.8815 42.276 43.6343 41.9824 43.4644C41.6889 43.2944 41.3721 43.2094 41.0322 43.2094C40.6922 43.2094 40.3755 43.2944 40.0819 43.4644C39.7883 43.6266 39.5488 43.87 39.3634 44.1944C39.1857 44.5112 39.0969 44.8898 39.0969 45.3301C39.0969 45.7705 39.1857 46.1568 39.3634 46.489C39.5488 46.8212 39.7883 47.0761 40.0819 47.2538C40.3832 47.4238 40.7 47.5088 41.0322 47.5088C41.3721 47.5088 41.6889 47.4238 41.9824 47.2538C42.276 47.0839 42.5116 46.8366 42.6893 46.5122C42.8748 46.18 42.9675 45.7937 42.9675 45.3533ZM47.3565 39.9762V48.5518H46.0354V39.9762H47.3565Z" fill="#333333"/>
<path d="M9.35202 71.0494V79.1035H8.03092V73.5873L5.57413 79.1035H4.65863L2.19025 73.5873V79.1035H0.869147V71.0494H2.29455L5.12217 77.3652L7.93821 71.0494H9.35202ZM10.648 75.8819C10.648 75.2406 10.7794 74.6728 11.0421 74.1783C11.3125 73.6839 11.6756 73.3015 12.1314 73.0311C12.5949 72.7529 13.1048 72.6139 13.6611 72.6139C14.1633 72.6139 14.5998 72.7143 14.9706 72.9152C15.3492 73.1083 15.6505 73.3517 15.8745 73.6453V72.7182H17.2072V79.1035H15.8745V78.1532C15.6505 78.4546 15.3453 78.7056 14.959 78.9065C14.5727 79.1074 14.1324 79.2078 13.6379 79.2078C13.0894 79.2078 12.5872 79.0687 12.1314 78.7906C11.6756 78.5048 11.3125 78.1108 11.0421 77.6086C10.7794 77.0987 10.648 76.5231 10.648 75.8819ZM15.8745 75.9051C15.8745 75.4647 15.7818 75.0823 15.5964 74.7578C15.4187 74.4333 15.1831 74.1861 14.8895 74.0161C14.5959 73.8461 14.2792 73.7612 13.9392 73.7612C13.5993 73.7612 13.2825 73.8461 12.989 74.0161C12.6954 74.1783 12.4559 74.4217 12.2705 74.7462C12.0928 75.0629 12.0039 75.4415 12.0039 75.8819C12.0039 76.3222 12.0928 76.7085 12.2705 77.0407C12.4559 77.3729 12.6954 77.6279 12.989 77.8056C13.2903 77.9756 13.607 78.0605 13.9392 78.0605C14.2792 78.0605 14.5959 77.9756 14.8895 77.8056C15.1831 77.6356 15.4187 77.3884 15.5964 77.0639C15.7818 76.7317 15.8745 76.3454 15.8745 75.9051ZM22.1641 72.6139C22.6662 72.6139 23.1143 72.7182 23.5083 72.9268C23.9101 73.1354 24.223 73.4444 24.447 73.8539C24.6711 74.2633 24.7831 74.7578 24.7831 75.3372V79.1035H23.4736V75.5342C23.4736 74.9625 23.3307 74.526 23.0448 74.2247C22.7589 73.9157 22.3688 73.7612 21.8744 73.7612C21.3799 73.7612 20.9859 73.9157 20.6923 74.2247C20.4065 74.526 20.2635 74.9625 20.2635 75.5342V79.1035H18.9424V72.7182H20.2635V73.4483C20.4799 73.1856 20.7541 72.9809 21.0863 72.8341C21.4263 72.6873 21.7855 72.6139 22.1641 72.6139ZM26.0279 75.8819C26.0279 75.2406 26.1592 74.6728 26.4219 74.1783C26.6923 73.6839 27.0554 73.3015 27.5112 73.0311C27.9748 72.7529 28.4885 72.6139 29.0525 72.6139C29.4697 72.6139 29.8792 72.7066 30.2809 72.892C30.6904 73.0697 31.0149 73.3092 31.2543 73.6105V70.5279H32.587V79.1035H31.2543V78.1417C31.038 78.4507 30.7367 78.7056 30.3504 78.9065C29.9719 79.1074 29.5354 79.2078 29.0409 79.2078C28.4847 79.2078 27.9748 79.0687 27.5112 78.7906C27.0554 78.5048 26.6923 78.1108 26.4219 77.6086C26.1592 77.0987 26.0279 76.5231 26.0279 75.8819ZM31.2543 75.9051C31.2543 75.4647 31.1616 75.0823 30.9762 74.7578C30.7985 74.4333 30.5629 74.1861 30.2693 74.0161C29.9757 73.8461 29.659 73.7612 29.319 73.7612C28.9791 73.7612 28.6624 73.8461 28.3688 74.0161C28.0752 74.1783 27.8357 74.4217 27.6503 74.7462C27.4726 75.0629 27.3837 75.4415 27.3837 75.8819C27.3837 76.3222 27.4726 76.7085 27.6503 77.0407C27.8357 77.3729 28.0752 77.6279 28.3688 77.8056C28.6701 77.9756 28.9868 78.0605 29.319 78.0605C29.659 78.0605 29.9757 77.9756 30.2693 77.8056C30.5629 77.6356 30.7985 77.3884 30.9762 77.0639C31.1616 76.7317 31.2543 76.3454 31.2543 75.9051ZM33.8819 75.8819C33.8819 75.2406 34.0132 74.6728 34.2759 74.1783C34.5463 73.6839 34.9094 73.3015 35.3652 73.0311C35.8288 72.7529 36.3387 72.6139 36.8949 72.6139C37.3971 72.6139 37.8336 72.7143 38.2044 72.9152C38.583 73.1083 38.8843 73.3517 39.1084 73.6453V72.7182H40.4411V79.1035H39.1084V78.1532C38.8843 78.4546 38.5791 78.7056 38.1929 78.9065C37.8066 79.1074 37.3662 79.2078 36.8718 79.2078C36.3232 79.2078 35.8211 79.0687 35.3652 78.7906C34.9094 78.5048 34.5463 78.1108 34.2759 77.6086C34.0132 77.0987 33.8819 76.5231 33.8819 75.8819ZM39.1084 75.9051C39.1084 75.4647 39.0157 75.0823 38.8302 74.7578C38.6525 74.4333 38.4169 74.1861 38.1233 74.0161C37.8297 73.8461 37.513 73.7612 37.1731 73.7612C36.8331 73.7612 36.5164 73.8461 36.2228 74.0161C35.9292 74.1783 35.6897 74.4217 35.5043 74.7462C35.3266 75.0629 35.2378 75.4415 35.2378 75.8819C35.2378 76.3222 35.3266 76.7085 35.5043 77.0407C35.6897 77.3729 35.9292 77.6279 36.2228 77.8056C36.5241 77.9756 36.8409 78.0605 37.1731 78.0605C37.513 78.0605 37.8297 77.9756 38.1233 77.8056C38.4169 77.6356 38.6525 77.3884 38.8302 77.0639C39.0157 76.7317 39.1084 76.3454 39.1084 75.9051ZM43.4974 70.5279V79.1035H42.1763V70.5279H43.4974ZM45.904 71.8722C45.6645 71.8722 45.4636 71.7911 45.3014 71.6289C45.1392 71.4666 45.058 71.2657 45.058 71.0262C45.058 70.7867 45.1392 70.5859 45.3014 70.4236C45.4636 70.2614 45.6645 70.1803 45.904 70.1803C46.1358 70.1803 46.3328 70.2614 46.495 70.4236C46.6573 70.5859 46.7384 70.7867 46.7384 71.0262C46.7384 71.2657 46.6573 71.4666 46.495 71.6289C46.3328 71.7911 46.1358 71.8722 45.904 71.8722ZM46.553 72.7182V79.1035H45.2319V72.7182H46.553ZM51.5091 72.6139C52.0113 72.6139 52.4594 72.7182 52.8534 72.9268C53.2551 73.1354 53.568 73.4444 53.7921 73.8539C54.0161 74.2633 54.1281 74.7578 54.1281 75.3372V79.1035H52.8186V75.5342C52.8186 74.9625 52.6757 74.526 52.3898 74.2247C52.104 73.9157 51.7138 73.7612 51.2194 73.7612C50.7249 73.7612 50.3309 73.9157 50.0373 74.2247C49.7515 74.526 49.6086 74.9625 49.6086 75.5342V79.1035H48.2875V72.7182H49.6086V73.4483C49.8249 73.1856 50.0991 72.9809 50.4314 72.8341C50.7713 72.6873 51.1305 72.6139 51.5091 72.6139ZM55.3729 75.8819C55.3729 75.2406 55.5042 74.6728 55.7669 74.1783C56.0373 73.6839 56.4004 73.3015 56.8563 73.0311C57.3198 72.7529 57.8297 72.6139 58.386 72.6139C58.8881 72.6139 59.3246 72.7143 59.6955 72.9152C60.074 73.1083 60.3753 73.3517 60.5994 73.6453V72.7182H61.9321V79.1035H60.5994V78.1532C60.3753 78.4546 60.0702 78.7056 59.6839 78.9065C59.2976 79.1074 58.8572 79.2078 58.3628 79.2078C57.8142 79.2078 57.3121 79.0687 56.8563 78.7906C56.4004 78.5048 56.0373 78.1108 55.7669 77.6086C55.5042 77.0987 55.3729 76.5231 55.3729 75.8819ZM60.5994 75.9051C60.5994 75.4647 60.5067 75.0823 60.3213 74.7578C60.1436 74.4333 59.9079 74.1861 59.6143 74.0161C59.3208 73.8461 59.004 73.7612 58.6641 73.7612C58.3241 73.7612 58.0074 73.8461 57.7138 74.0161C57.4202 74.1783 57.1807 74.4217 56.9953 74.7462C56.8176 75.0629 56.7288 75.4415 56.7288 75.8819C56.7288 76.3222 56.8176 76.7085 56.9953 77.0407C57.1807 77.3729 57.4202 77.6279 57.7138 77.8056C58.0151 77.9756 58.3319 78.0605 58.6641 78.0605C59.004 78.0605 59.3208 77.9756 59.6143 77.8056C59.9079 77.6356 60.1436 77.3884 60.3213 77.0639C60.5067 76.7317 60.5994 76.3454 60.5994 75.9051Z" fill="#333333"/>
<path d="M3.49977 101.601C4.35732 101.601 5.10672 101.768 5.74796 102.1C6.39692 102.424 6.89523 102.895 7.24289 103.514C7.59828 104.124 7.77597 104.839 7.77597 105.657C7.77597 106.476 7.59828 107.187 7.24289 107.79C6.89523 108.392 6.39692 108.856 5.74796 109.18C5.10672 109.497 4.35732 109.656 3.49977 109.656H0.869147V101.601H3.49977ZM3.49977 108.578C4.44231 108.578 5.16467 108.323 5.66684 107.813C6.16901 107.303 6.4201 106.585 6.4201 105.657C6.4201 104.723 6.16901 103.993 5.66684 103.467C5.16467 102.942 4.44231 102.679 3.49977 102.679H2.19025V108.578H3.49977ZM9.75744 102.424C9.51795 102.424 9.31708 102.343 9.15483 102.181C8.99259 102.019 8.91147 101.818 8.91147 101.578C8.91147 101.339 8.99259 101.138 9.15483 100.976C9.31708 100.813 9.51795 100.732 9.75744 100.732C9.98922 100.732 10.1862 100.813 10.3485 100.976C10.5107 101.138 10.5918 101.339 10.5918 101.578C10.5918 101.818 10.5107 102.019 10.3485 102.181C10.1862 102.343 9.98922 102.424 9.75744 102.424ZM10.4064 103.27V109.656H9.0853V103.27H10.4064ZM14.7136 103.166C15.208 103.166 15.6445 103.266 16.0231 103.467C16.4094 103.66 16.7107 103.904 16.927 104.197V103.27H18.2597V109.76C18.2597 110.347 18.1361 110.868 17.8889 111.324C17.6416 111.788 17.2824 112.151 16.8111 112.414C16.3476 112.676 15.7913 112.808 15.1424 112.808C14.2771 112.808 13.5586 112.603 12.9869 112.193C12.4152 111.792 12.0907 111.243 12.0134 110.548H13.3229C13.4234 110.88 13.6358 111.147 13.9603 111.347C14.2925 111.556 14.6865 111.66 15.1424 111.66C15.6754 111.66 16.1042 111.498 16.4287 111.174C16.7609 110.849 16.927 110.378 16.927 109.76V108.694C16.703 108.995 16.3978 109.25 16.0115 109.459C15.6329 109.659 15.2003 109.76 14.7136 109.76C14.1573 109.76 13.6474 109.621 13.1839 109.343C12.7281 109.057 12.3649 108.663 12.0945 108.161C11.8319 107.651 11.7005 107.075 11.7005 106.434C11.7005 105.793 11.8319 105.225 12.0945 104.73C12.3649 104.236 12.7281 103.853 13.1839 103.583C13.6474 103.305 14.1573 103.166 14.7136 103.166ZM16.927 106.457C16.927 106.017 16.8343 105.634 16.6489 105.31C16.4712 104.985 16.2355 104.738 15.942 104.568C15.6484 104.398 15.3316 104.313 14.9917 104.313C14.6518 104.313 14.335 104.398 14.0414 104.568C13.7479 104.73 13.5084 104.974 13.3229 105.298C13.1452 105.615 13.0564 105.994 13.0564 106.434C13.0564 106.874 13.1452 107.261 13.3229 107.593C13.5084 107.925 13.7479 108.18 14.0414 108.358C14.3427 108.528 14.6595 108.613 14.9917 108.613C15.3316 108.613 15.6484 108.528 15.942 108.358C16.2355 108.188 16.4712 107.94 16.6489 107.616C16.8343 107.284 16.927 106.897 16.927 106.457ZM16.9502 101.126C16.9502 101.613 16.7918 102.003 16.475 102.297C16.166 102.59 15.7411 102.737 15.2003 102.737C14.6595 102.737 14.2346 102.59 13.9255 102.297C13.6165 101.995 13.462 101.601 13.462 101.115V100.871H14.2153C14.2153 101.149 14.2887 101.358 14.4354 101.497C14.5822 101.636 14.8372 101.706 15.2003 101.706C15.5634 101.706 15.8184 101.636 15.9651 101.497C16.1119 101.358 16.1853 101.149 16.1853 100.871H16.9502V101.126ZM25.8472 106.306C25.8472 106.546 25.8317 106.762 25.8008 106.955H20.922C20.9606 107.465 21.1499 107.875 21.4898 108.184C21.8298 108.493 22.247 108.647 22.7414 108.647C23.4522 108.647 23.9544 108.35 24.2479 107.755H25.6733C25.4802 108.342 25.1287 108.825 24.6188 109.204C24.1166 109.574 23.4908 109.76 22.7414 109.76C22.1311 109.76 21.5826 109.625 21.0958 109.354C20.6168 109.076 20.2383 108.69 19.9601 108.195C19.6897 107.693 19.5545 107.114 19.5545 106.457C19.5545 105.8 19.6859 105.225 19.9486 104.73C20.219 104.228 20.5937 103.842 21.0727 103.571C21.5594 103.301 22.1156 103.166 22.7414 103.166C23.344 103.166 23.881 103.297 24.3522 103.56C24.8235 103.823 25.1905 104.193 25.4532 104.672C25.7158 105.144 25.8472 105.688 25.8472 106.306ZM24.4681 105.889C24.4604 105.402 24.2866 105.012 23.9466 104.719C23.6067 104.425 23.1856 104.278 22.6835 104.278C22.2277 104.278 21.8375 104.425 21.513 104.719C21.1885 105.005 20.9954 105.395 20.9336 105.889H24.4681ZM28.4684 104.197C28.6615 103.873 28.9165 103.622 29.2332 103.444C29.5577 103.259 29.9401 103.166 30.3805 103.166V104.533H30.0444C29.5268 104.533 29.1328 104.665 28.8624 104.927C28.5997 105.19 28.4684 105.646 28.4684 106.295V109.656H27.1473V103.27H28.4684V104.197Z" fill="#333333"/>
<path d="M201.92 11.257H198.815V13.1019C198.944 12.9288 199.136 12.7836 199.389 12.6662C199.649 12.5487 199.924 12.49 200.215 12.49C200.734 12.49 201.154 12.6013 201.475 12.8238C201.803 13.0463 202.035 13.3275 202.171 13.6674C202.313 14.0074 202.384 14.3658 202.384 14.7429C202.384 15.2002 202.294 15.6081 202.115 15.9666C201.942 16.3189 201.679 16.597 201.327 16.801C200.981 17.005 200.555 17.1069 200.048 17.1069C199.374 17.1069 198.833 16.9401 198.425 16.6063C198.017 16.2726 197.773 15.8306 197.693 15.2806H198.722C198.79 15.5711 198.941 15.8028 199.176 15.9759C199.411 16.1428 199.705 16.2262 200.057 16.2262C200.496 16.2262 200.823 16.0933 201.04 15.8275C201.262 15.5618 201.373 15.2095 201.373 14.7707C201.373 14.3257 201.262 13.9857 201.04 13.7509C200.817 13.5098 200.49 13.3893 200.057 13.3893C199.754 13.3893 199.498 13.4666 199.287 13.6211C199.084 13.7694 198.935 13.9734 198.842 14.233H197.841V10.3299H201.92V11.257ZM203.345 11.3126V10.3484H205.273V17.1069H204.207V11.3126H203.345ZM206.558 11.9801C206.558 11.5289 206.688 11.1766 206.948 10.9232C207.214 10.6637 207.554 10.5339 207.968 10.5339C208.382 10.5339 208.719 10.6637 208.978 10.9232C209.244 11.1766 209.377 11.5289 209.377 11.9801C209.377 12.4313 209.244 12.7867 208.978 13.0463C208.719 13.3059 208.382 13.4357 207.968 13.4357C207.554 13.4357 207.214 13.3059 206.948 13.0463C206.688 12.7867 206.558 12.4313 206.558 11.9801ZM212.214 10.6544L208.515 17.1069H207.476L211.175 10.6544H212.214ZM207.968 11.1736C207.578 11.1736 207.384 11.4424 207.384 11.9801C207.384 12.524 207.578 12.796 207.968 12.796C208.153 12.796 208.295 12.7311 208.394 12.6013C208.499 12.4653 208.552 12.2583 208.552 11.9801C208.552 11.4424 208.357 11.1736 207.968 11.1736ZM210.332 15.7719C210.332 15.3207 210.462 14.9684 210.721 14.715C210.987 14.4555 211.327 14.3257 211.741 14.3257C212.149 14.3257 212.483 14.4555 212.742 14.715C213.008 14.9684 213.141 15.3207 213.141 15.7719C213.141 16.2231 213.008 16.5785 212.742 16.8381C212.483 17.0977 212.149 17.2275 211.741 17.2275C211.327 17.2275 210.987 17.0977 210.721 16.8381C210.462 16.5785 210.332 16.2231 210.332 15.7719ZM211.732 14.9654C211.342 14.9654 211.148 15.2342 211.148 15.7719C211.148 16.3096 211.342 16.5785 211.732 16.5785C212.121 16.5785 212.316 16.3096 212.316 15.7719C212.316 15.2342 212.121 14.9654 211.732 14.9654Z" fill="white"/>
<path d="M227.535 73.019C227.467 72.7347 227.343 72.5214 227.164 72.3793C226.985 72.2371 226.735 72.1661 226.413 72.1661C225.925 72.1661 225.56 72.3546 225.319 72.7316C225.078 73.1024 224.951 73.7205 224.939 74.5858C225.1 74.3138 225.335 74.1037 225.644 73.9553C225.953 73.807 226.286 73.7328 226.645 73.7328C227.053 73.7328 227.411 73.8225 227.72 74.0017C228.036 74.1748 228.28 74.4282 228.453 74.7619C228.632 75.0957 228.722 75.4943 228.722 75.9579C228.722 76.3905 228.635 76.7768 228.462 77.1167C228.295 77.4567 228.045 77.7255 227.711 77.9233C227.377 78.1149 226.976 78.2107 226.506 78.2107C225.869 78.2107 225.369 78.0716 225.004 77.7935C224.645 77.5092 224.392 77.1105 224.244 76.5976C224.102 76.0846 224.031 75.4449 224.031 74.6785C224.031 72.4164 224.828 71.2853 226.422 71.2853C227.04 71.2853 227.526 71.4522 227.878 71.786C228.236 72.1197 228.447 72.5307 228.508 73.019H227.535ZM226.413 74.6229C226.036 74.6229 225.715 74.7372 225.449 74.9659C225.189 75.1884 225.06 75.5129 225.06 75.9393C225.06 76.3658 225.18 76.7057 225.421 76.9591C225.668 77.2063 226.011 77.33 226.45 77.33C226.84 77.33 227.146 77.2094 227.368 76.9684C227.597 76.7273 227.711 76.406 227.711 76.0042C227.711 75.5839 227.6 75.2502 227.377 75.003C227.161 74.7496 226.84 74.6229 226.413 74.6229ZM229.71 72.4164V71.4522H231.638V78.2107H230.572V72.4164H229.71ZM232.923 73.0839C232.923 72.6327 233.053 72.2804 233.313 72.027C233.578 71.7674 233.918 71.6376 234.332 71.6376C234.747 71.6376 235.083 71.7674 235.343 72.027C235.609 72.2804 235.742 72.6327 235.742 73.0839C235.742 73.5351 235.609 73.8905 235.343 74.15C235.083 74.4096 234.747 74.5394 234.332 74.5394C233.918 74.5394 233.578 74.4096 233.313 74.15C233.053 73.8905 232.923 73.5351 232.923 73.0839ZM238.579 71.7581L234.879 78.2107H233.841L237.54 71.7581H238.579ZM234.332 72.2773C233.943 72.2773 233.748 72.5462 233.748 73.0839C233.748 73.6278 233.943 73.8997 234.332 73.8997C234.518 73.8997 234.66 73.8348 234.759 73.705C234.864 73.5691 234.917 73.362 234.917 73.0839C234.917 72.5462 234.722 72.2773 234.332 72.2773ZM236.697 76.8757C236.697 76.4245 236.826 76.0722 237.086 75.8188C237.352 75.5592 237.692 75.4294 238.106 75.4294C238.514 75.4294 238.847 75.5592 239.107 75.8188C239.373 76.0722 239.506 76.4245 239.506 76.8757C239.506 77.3269 239.373 77.6823 239.107 77.9418C238.847 78.2014 238.514 78.3312 238.106 78.3312C237.692 78.3312 237.352 78.2014 237.086 77.9418C236.826 77.6823 236.697 77.3269 236.697 76.8757ZM238.096 76.0691C237.707 76.0691 237.512 76.338 237.512 76.8757C237.512 77.4134 237.707 77.6823 238.096 77.6823C238.486 77.6823 238.681 77.4134 238.681 76.8757C238.681 76.338 238.486 76.0691 238.096 76.0691Z" fill="white"/>
<path d="M132.829 46.2217C133.423 45.7087 133.889 45.2884 134.229 44.9609C134.575 44.6271 134.863 44.281 135.091 43.9225C135.32 43.564 135.434 43.2056 135.434 42.8471C135.434 42.4763 135.345 42.1858 135.166 41.9756C134.992 41.7655 134.717 41.6604 134.34 41.6604C133.976 41.6604 133.691 41.7778 133.488 42.0127C133.29 42.2414 133.185 42.5504 133.172 42.9398H132.153C132.171 42.2352 132.381 41.6975 132.783 41.3267C133.191 40.9496 133.707 40.7611 134.331 40.7611C135.005 40.7611 135.53 40.9466 135.907 41.3174C136.29 41.6882 136.482 42.1827 136.482 42.8007C136.482 43.2457 136.368 43.6753 136.139 44.0894C135.916 44.4973 135.648 44.8651 135.332 45.1926C135.023 45.514 134.628 45.8879 134.146 46.3144L133.729 46.6852H136.667V47.566H132.162V46.7965L132.829 46.2217ZM138.912 45.8231C138.974 46.1321 139.107 46.3669 139.311 46.5276C139.515 46.6883 139.79 46.7687 140.136 46.7687C140.575 46.7687 140.896 46.5956 141.1 46.2495C141.304 45.9034 141.406 45.3132 141.406 44.4788C141.258 44.6889 141.048 44.8527 140.776 44.9701C140.51 45.0814 140.22 45.137 139.904 45.137C139.503 45.137 139.138 45.0567 138.81 44.896C138.483 44.7291 138.223 44.485 138.032 44.1636C137.846 43.836 137.754 43.4404 137.754 42.9769C137.754 42.297 137.951 41.7562 138.347 41.3545C138.749 40.9466 139.299 40.7426 139.997 40.7426C140.838 40.7426 141.434 41.0238 141.786 41.5862C142.145 42.1425 142.324 42.9985 142.324 44.1543C142.324 44.9516 142.256 45.6036 142.12 46.1105C141.99 46.6173 141.762 47.0005 141.434 47.26C141.106 47.5196 140.652 47.6494 140.071 47.6494C139.41 47.6494 138.9 47.4764 138.542 47.1302C138.183 46.7841 137.982 46.3484 137.939 45.8231H138.912ZM140.09 44.247C140.461 44.247 140.751 44.1327 140.961 43.904C141.178 43.6691 141.286 43.3601 141.286 42.9769C141.286 42.5504 141.171 42.2198 140.943 41.9849C140.72 41.7439 140.414 41.6233 140.025 41.6233C139.636 41.6233 139.326 41.7469 139.098 41.9942C138.875 42.2352 138.764 42.5535 138.764 42.9491C138.764 43.3261 138.872 43.6382 139.089 43.8854C139.311 44.1265 139.645 44.247 140.09 44.247ZM143.314 42.5319C143.314 42.0807 143.444 41.7284 143.703 41.475C143.969 41.2154 144.309 41.0856 144.723 41.0856C145.137 41.0856 145.474 41.2154 145.734 41.475C145.999 41.7284 146.132 42.0807 146.132 42.5319C146.132 42.9831 145.999 43.3385 145.734 43.598C145.474 43.8576 145.137 43.9874 144.723 43.9874C144.309 43.9874 143.969 43.8576 143.703 43.598C143.444 43.3385 143.314 42.9831 143.314 42.5319ZM148.969 41.2061L145.27 47.6587H144.232L147.931 41.2061H148.969ZM144.723 41.7253C144.334 41.7253 144.139 41.9942 144.139 42.5319C144.139 43.0758 144.334 43.3477 144.723 43.3477C144.908 43.3477 145.051 43.2828 145.15 43.153C145.255 43.0171 145.307 42.81 145.307 42.5319C145.307 41.9942 145.112 41.7253 144.723 41.7253ZM147.087 46.3237C147.087 45.8725 147.217 45.5202 147.477 45.2668C147.742 45.0072 148.082 44.8774 148.496 44.8774C148.904 44.8774 149.238 45.0072 149.498 45.2668C149.763 45.5202 149.896 45.8725 149.896 46.3237C149.896 46.7749 149.763 47.1302 149.498 47.3898C149.238 47.6494 148.904 47.7792 148.496 47.7792C148.082 47.7792 147.742 47.6494 147.477 47.3898C147.217 47.1302 147.087 46.7749 147.087 46.3237ZM148.487 45.5171C148.098 45.5171 147.903 45.786 147.903 46.3237C147.903 46.8614 148.098 47.1302 148.487 47.1302C148.876 47.1302 149.071 46.8614 149.071 46.3237C149.071 45.786 148.876 45.5171 148.487 45.5171Z" fill="white"/>
<path d="M119.464 102.968V102.004H121.392V108.762H120.326V102.968H119.464ZM122.715 107.353V106.556L125.83 102.087H127.109V106.435H127.971V107.353H127.109V108.762H126.071V107.353H122.715ZM126.117 103.163L123.929 106.435H126.117V103.163ZM128.68 103.636C128.68 103.184 128.81 102.832 129.069 102.579C129.335 102.319 129.675 102.189 130.089 102.189C130.503 102.189 130.84 102.319 131.1 102.579C131.365 102.832 131.498 103.184 131.498 103.636C131.498 104.087 131.365 104.442 131.1 104.702C130.84 104.961 130.503 105.091 130.089 105.091C129.675 105.091 129.335 104.961 129.069 104.702C128.81 104.442 128.68 104.087 128.68 103.636ZM134.335 102.31L130.636 108.762H129.598L133.297 102.31H134.335ZM130.089 102.829C129.7 102.829 129.505 103.098 129.505 103.636C129.505 104.18 129.7 104.451 130.089 104.451C130.275 104.451 130.417 104.387 130.516 104.257C130.621 104.121 130.673 103.914 130.673 103.636C130.673 103.098 130.479 102.829 130.089 102.829ZM132.453 107.427C132.453 106.976 132.583 106.624 132.843 106.371C133.108 106.111 133.448 105.981 133.862 105.981C134.27 105.981 134.604 106.111 134.864 106.371C135.129 106.624 135.262 106.976 135.262 107.427C135.262 107.879 135.129 108.234 134.864 108.494C134.604 108.753 134.27 108.883 133.862 108.883C133.448 108.883 133.108 108.753 132.843 108.494C132.583 108.234 132.453 107.879 132.453 107.427ZM133.853 106.621C133.464 106.621 133.269 106.89 133.269 107.427C133.269 107.965 133.464 108.234 133.853 108.234C134.243 108.234 134.437 107.965 134.437 107.427C134.437 106.89 134.243 106.621 133.853 106.621Z" fill="white"/>
<defs>
<filter id="filter0_d_26_800" x="92.1372" y="0.106934" width="231.863" height="31.6956" filterUnits="userSpaceOnUse" color-interpolation-filters="sRGB">
<feFlood flood-opacity="0" result="BackgroundImageFix"/>
<feColorMatrix in="SourceAlpha" type="matrix" values="0 0 0 0 0 0 0 0 0 0 0 0 0 0 0 0 0 0 127 0" result="hardAlpha"/>
<feMorphology radius="2" operator="dilate" in="SourceAlpha" result="effect1_dropShadow_26_800"/>
<feOffset dy="2"/>
<feGaussianBlur stdDeviation="3.5"/>
<feComposite in2="hardAlpha" operator="out"/>
<feColorMatrix type="matrix" values="0 0 0 0 0.0369048 0 0 0 0 0.125 0 0 0 0 0.263095 0 0 0 0.15 0"/>
<feBlend mode="normal" in2="BackgroundImageFix" result="effect1_dropShadow_26_800"/>
<feBlend mode="normal" in="SourceGraphic" in2="effect1_dropShadow_26_800" result="shape"/>
</filter>
<filter id="filter1_d_26_800" x="92.1372" y="30.6587" width="231.863" height="31.6956" filterUnits="userSpaceOnUse" color-interpolation-filters="sRGB">
<feFlood flood-opacity="0" result="BackgroundImageFix"/>
<feColorMatrix in="SourceAlpha" type="matrix" values="0 0 0 0 0 0 0 0 0 0 0 0 0 0 0 0 0 0 127 0" result="hardAlpha"/>
<feMorphology radius="2" operator="dilate" in="SourceAlpha" result="effect1_dropShadow_26_800"/>
<feOffset dy="2"/>
<feGaussianBlur stdDeviation="3.5"/>
<feComposite in2="hardAlpha" operator="out"/>
<feColorMatrix type="matrix" values="0 0 0 0 0.0369048 0 0 0 0 0.125 0 0 0 0 0.263095 0 0 0 0.15 0"/>
<feBlend mode="normal" in2="BackgroundImageFix" result="effect1_dropShadow_26_800"/>
<feBlend mode="normal" in="SourceGraphic" in2="effect1_dropShadow_26_800" result="shape"/>
</filter>
<filter id="filter2_d_26_800" x="92.1372" y="61.2107" width="231.863" height="31.6956" filterUnits="userSpaceOnUse" color-interpolation-filters="sRGB">
<feFlood flood-opacity="0" result="BackgroundImageFix"/>
<feColorMatrix in="SourceAlpha" type="matrix" values="0 0 0 0 0 0 0 0 0 0 0 0 0 0 0 0 0 0 127 0" result="hardAlpha"/>
<feMorphology radius="2" operator="dilate" in="SourceAlpha" result="effect1_dropShadow_26_800"/>
<feOffset dy="2"/>
<feGaussianBlur stdDeviation="3.5"/>
<feComposite in2="hardAlpha" operator="out"/>
<feColorMatrix type="matrix" values="0 0 0 0 0.0369048 0 0 0 0 0.125 0 0 0 0 0.263095 0 0 0 0.15 0"/>
<feBlend mode="normal" in2="BackgroundImageFix" result="effect1_dropShadow_26_800"/>
<feBlend mode="normal" in="SourceGraphic" in2="effect1_dropShadow_26_800" result="shape"/>
</filter>
<filter id="filter3_d_26_800" x="92.1372" y="91.7625" width="231.863" height="31.6956" filterUnits="userSpaceOnUse" color-interpolation-filters="sRGB">
<feFlood flood-opacity="0" result="BackgroundImageFix"/>
<feColorMatrix in="SourceAlpha" type="matrix" values="0 0 0 0 0 0 0 0 0 0 0 0 0 0 0 0 0 0 127 0" result="hardAlpha"/>
<feMorphology radius="2" operator="dilate" in="SourceAlpha" result="effect1_dropShadow_26_800"/>
<feOffset dy="2"/>
<feGaussianBlur stdDeviation="3.5"/>
<feComposite in2="hardAlpha" operator="out"/>
<feColorMatrix type="matrix" values="0 0 0 0 0.0369048 0 0 0 0 0.125 0 0 0 0 0.263095 0 0 0 0.15 0"/>
<feBlend mode="normal" in2="BackgroundImageFix" result="effect1_dropShadow_26_800"/>
<feBlend mode="normal" in="SourceGraphic" in2="effect1_dropShadow_26_800" result="shape"/>
</filter>
</defs>
</svg>
