<svg width="52" height="31" viewBox="0 0 52 31" fill="none" xmlns="http://www.w3.org/2000/svg">
<path fill-rule="evenodd" clip-rule="evenodd" d="M25.8119 26.5892C23.1391 28.8139 19.6721 30.1569 15.8835 30.1569C7.43004 30.1569 0.577148 23.4702 0.577148 15.2218C0.577148 6.97332 7.43004 0.286621 15.8835 0.286621C19.6721 0.286621 23.1391 1.62966 25.8119 3.85441C28.4847 1.62966 31.9518 0.286621 35.7403 0.286621C44.1938 0.286621 51.0467 6.97332 51.0467 15.2218C51.0467 23.4702 44.1938 30.1569 35.7403 30.1569C31.9518 30.1569 28.4847 28.8139 25.8119 26.5892Z" fill="#ED0006"/>
<path fill-rule="evenodd" clip-rule="evenodd" d="M25.812 26.5891C29.103 23.8497 31.1898 19.7735 31.1898 15.2218C31.1898 10.6701 29.103 6.5939 25.812 3.85451C28.4848 1.6297 31.952 0.286621 35.7406 0.286621C44.194 0.286621 51.0469 6.97332 51.0469 15.2218C51.0469 23.4702 44.194 30.1569 35.7406 30.1569C31.952 30.1569 28.4848 28.8139 25.812 26.5891Z" fill="#F9A000"/>
<path fill-rule="evenodd" clip-rule="evenodd" d="M25.8119 26.5892C22.5209 23.8498 20.4341 19.7737 20.4341 15.222C20.4341 10.6702 22.5209 6.59412 25.8118 3.85474C29.1028 6.59412 31.1896 10.6703 31.1896 15.222C31.1896 19.7737 29.1028 23.8498 25.8119 26.5892Z" fill="#FF5E00"/>
</svg>
