<svg width="192" height="73" viewBox="0 0 192 73" fill="none" xmlns="http://www.w3.org/2000/svg">
<g filter="url(#filter0_d_1973_1582)">
<rect x="59.8652" y="4.31934" width="126.59" height="8.10675" rx="4.05337" fill="white"/>
</g>
<rect x="59.7842" y="4.2561" width="38.4749" height="8.2869" rx="4.14345" fill="#226CE0"/>
<g filter="url(#filter1_d_1973_1582)">
<rect x="59.7842" y="22.6055" width="126.671" height="7.69497" rx="3.84749" fill="white"/>
</g>
<rect x="59.7842" y="22.6055" width="101.81" height="7.69497" rx="3.84749" fill="#226CE0"/>
<g filter="url(#filter2_d_1973_1582)">
<rect x="59.8652" y="40.4877" width="126.59" height="8.10675" rx="4.05337" fill="white"/>
</g>
<rect x="59.7842" y="40.3632" width="114.833" height="8.2869" rx="4.14345" fill="#226CE0"/>
<g filter="url(#filter3_d_1973_1582)">
<rect x="59.7842" y="58.7128" width="126.671" height="7.69497" rx="3.84749" fill="white"/>
</g>
<rect x="59.7842" y="58.8484" width="84.6447" height="7.42804" rx="3.71402" fill="#226CE0"/>
<path d="M3.32002 5.30463V5.94257H1.29646V7.34878H2.87415V7.98672H1.29646V10.072H0.514467V5.30463H3.32002ZM4.82672 5.30463V10.072H4.04473V5.30463H4.82672ZM8.65896 5.30463V5.94257H6.63539V7.34878H8.21308V7.98672H6.63539V10.072H5.8534V5.30463H8.65896ZM12.2578 9.09796H10.2617L9.9187 10.072H9.10242L10.8104 5.29777H11.7159L13.4239 10.072H12.6008L12.2578 9.09796ZM12.0383 8.46003L11.2632 6.24439L10.4812 8.46003H12.0383ZM14.4958 9.00879C14.9349 8.62923 15.2801 8.31826 15.5316 8.07589C15.7877 7.82895 16.0004 7.57286 16.1696 7.30762C16.3388 7.04238 16.4234 6.77715 16.4234 6.51191C16.4234 6.23753 16.3571 6.0226 16.2245 5.86711C16.0964 5.71163 15.8929 5.63389 15.614 5.63389C15.3441 5.63389 15.1338 5.72078 14.9829 5.89455C14.8365 6.06375 14.7588 6.29241 14.7497 6.58051H13.9951C14.0088 6.05918 14.1643 5.66133 14.4615 5.38695C14.7634 5.10799 15.1452 4.96851 15.6071 4.96851C16.1056 4.96851 16.4943 5.1057 16.7732 5.38009C17.0567 5.65447 17.1985 6.02031 17.1985 6.47761C17.1985 6.80687 17.1139 7.1247 16.9447 7.43109C16.7801 7.73291 16.5812 8.00501 16.3479 8.24738C16.1193 8.48518 15.8266 8.76185 15.4699 9.07739L15.1612 9.35177H17.3357V10.0034H14.002V9.43408L14.4958 9.00879ZM17.9198 5.7848V5.07141H19.3466V10.072H18.5577V5.7848H17.9198Z" fill="#333333"/>
<path d="M26.3493 10.8198C26.8553 10.4133 27.2518 10.0806 27.5387 9.82157C27.8257 9.55857 28.0667 9.28561 28.262 9.00268C28.4612 8.71577 28.5609 8.43484 28.5609 8.15989C28.5609 7.90088 28.4971 7.69765 28.3696 7.55021C28.2461 7.39879 28.0448 7.32308 27.7659 7.32308C27.4949 7.32308 27.2837 7.40875 27.1323 7.5801C26.9849 7.74746 26.9052 7.9726 26.8932 8.25553H26.3672C26.3831 7.80923 26.5186 7.46454 26.7737 7.22146C27.0287 6.97839 27.3574 6.85685 27.7599 6.85685C28.1703 6.85685 28.4951 6.97042 28.7342 7.19756C28.9773 7.42469 29.0988 7.7375 29.0988 8.13598C29.0988 8.46672 28.9992 8.78949 28.7999 9.1043C28.6047 9.41511 28.3815 9.69007 28.1305 9.92916C27.8794 10.1643 27.5587 10.4392 27.1682 10.754H29.2243V11.2083H26.3493V10.8198ZM29.8531 9.0505C29.8531 8.36511 29.9647 7.83114 30.1878 7.4486C30.411 7.06207 30.8015 6.86881 31.3594 6.86881C31.9133 6.86881 32.3018 7.06207 32.5249 7.4486C32.7481 7.83114 32.8597 8.36511 32.8597 9.0505C32.8597 9.74785 32.7481 10.2898 32.5249 10.6763C32.3018 11.0628 31.9133 11.2561 31.3594 11.2561C30.8015 11.2561 30.411 11.0628 30.1878 10.6763C29.9647 10.2898 29.8531 9.74785 29.8531 9.0505ZM32.3217 9.0505C32.3217 8.70382 32.2978 8.41094 32.25 8.17185C32.2061 7.92877 32.1125 7.73351 31.969 7.58608C31.8296 7.43864 31.6264 7.36492 31.3594 7.36492C31.0884 7.36492 30.8812 7.43864 30.7377 7.58608C30.5983 7.73351 30.5046 7.92877 30.4568 8.17185C30.413 8.41094 30.3911 8.70382 30.3911 9.0505C30.3911 9.40914 30.413 9.70999 30.4568 9.95306C30.5046 10.1961 30.5983 10.3914 30.7377 10.5388C30.8812 10.6863 31.0884 10.76 31.3594 10.76C31.6264 10.76 31.8296 10.6863 31.969 10.5388C32.1125 10.3914 32.2061 10.1961 32.25 9.95306C32.2978 9.70999 32.3217 9.40914 32.3217 9.0505Z" fill="#828282"/>
<path d="M30.9464 25.7561H28.8484V27.1189C28.94 26.9914 29.0755 26.8878 29.2549 26.8081C29.4342 26.7244 29.6274 26.6826 29.8346 26.6826C30.1654 26.6826 30.4344 26.7523 30.6416 26.8918C30.8488 27.0273 30.9962 27.2046 31.0839 27.4238C31.1755 27.639 31.2214 27.8681 31.2214 28.1112C31.2214 28.3981 31.1676 28.6551 31.06 28.8822C30.9524 29.1094 30.787 29.2887 30.5639 29.4202C30.3447 29.5517 30.0717 29.6174 29.745 29.6174C29.3266 29.6174 28.9879 29.5098 28.7289 29.2947C28.4698 29.0795 28.3124 28.7926 28.2567 28.4339H28.7886C28.8404 28.6611 28.95 28.8384 29.1174 28.9659C29.2847 29.0934 29.4959 29.1572 29.751 29.1572C30.0658 29.1572 30.3029 29.0635 30.4623 28.8762C30.6216 28.685 30.7013 28.4339 30.7013 28.1231C30.7013 27.8123 30.6216 27.5732 30.4623 27.4058C30.3029 27.2345 30.0678 27.1488 29.7569 27.1488C29.5457 27.1488 29.3604 27.2006 29.2011 27.3042C29.0456 27.4039 28.9321 27.5413 28.8604 27.7167H28.3463V25.2779H30.9464V25.7561ZM32.6435 28.4459C32.6834 28.673 32.775 28.8484 32.9185 28.9719C33.0659 29.0954 33.2632 29.1572 33.5102 29.1572C33.841 29.1572 34.084 29.0277 34.2395 28.7687C34.3988 28.5096 34.4746 28.0733 34.4666 27.4596C34.3829 27.639 34.2434 27.7804 34.0482 27.884C33.8529 27.9836 33.6358 28.0335 33.3967 28.0335C33.1297 28.0335 32.8906 27.9797 32.6794 27.8721C32.4722 27.7605 32.3088 27.5991 32.1893 27.3879C32.0697 27.1767 32.0099 26.9217 32.0099 26.6228C32.0099 26.1964 32.1335 25.8538 32.3805 25.5947C32.6276 25.3317 32.9783 25.2002 33.4325 25.2002C33.9904 25.2002 34.3809 25.3815 34.6041 25.7442C34.8312 26.1068 34.9448 26.6467 34.9448 27.364C34.9448 27.8661 34.8989 28.2805 34.8073 28.6073C34.7196 28.934 34.5682 29.1831 34.353 29.3544C34.1418 29.5258 33.8509 29.6114 33.4803 29.6114C33.0739 29.6114 32.7571 29.5019 32.53 29.2827C32.3028 29.0635 32.1733 28.7846 32.1414 28.4459H32.6435ZM33.4863 27.5732C33.7533 27.5732 33.9725 27.4915 34.1438 27.3281C34.3152 27.1608 34.4008 26.9356 34.4008 26.6527C34.4008 26.3538 34.3172 26.1128 34.1498 25.9295C33.9824 25.7462 33.7473 25.6545 33.4445 25.6545C33.1655 25.6545 32.9424 25.7422 32.775 25.9175C32.6116 26.0928 32.53 26.324 32.53 26.6109C32.53 26.9018 32.6116 27.1349 32.775 27.3102C32.9384 27.4855 33.1755 27.5732 33.4863 27.5732Z" fill="#828282"/>
<path d="M19.6042 42.8742L17.9425 46.7714H17.3926L19.0782 42.928H16.771V42.4618H19.6042V42.8742ZM20.0638 42.9459V42.4498H21.1876V46.7714H20.6376V42.9459H20.0638Z" fill="#828282"/>
<path d="M39.233 61.2716H37.135V62.6344C37.2267 62.5069 37.3622 62.4033 37.5415 62.3236C37.7208 62.2399 37.9141 62.1981 38.1213 62.1981C38.452 62.1981 38.721 62.2678 38.9282 62.4073C39.1354 62.5428 39.2828 62.7201 39.3705 62.9393C39.4622 63.1545 39.508 63.3836 39.508 63.6267C39.508 63.9136 39.4542 64.1706 39.3466 64.3977C39.239 64.6249 39.0736 64.8042 38.8505 64.9357C38.6313 65.0672 38.3584 65.1329 38.0316 65.1329C37.6132 65.1329 37.2745 65.0253 37.0155 64.8102C36.7565 64.595 36.5991 64.3081 36.5433 63.9494H37.0752C37.127 64.1766 37.2366 64.3539 37.404 64.4814C37.5714 64.6089 37.7826 64.6727 38.0376 64.6727C38.3524 64.6727 38.5895 64.579 38.7489 64.3917C38.9083 64.2005 38.988 63.9494 38.988 63.6386C38.988 63.3278 38.9083 63.0887 38.7489 62.9213C38.5895 62.75 38.3544 62.6643 38.0436 62.6643C37.8324 62.6643 37.6471 62.7161 37.4877 62.8197C37.3323 62.9194 37.2187 63.0568 37.147 63.2322H36.6329V60.7934H39.233V61.2716ZM40.0874 61.2955V60.7994H41.2111V65.121H40.6612V61.2955H40.0874Z" fill="#828282"/>
<path d="M0.253804 25.7624C0.253804 25.2959 0.36127 24.8775 0.576203 24.5071C0.795708 24.1367 1.09067 23.8486 1.46109 23.6428C1.83607 23.4324 2.24536 23.3272 2.68895 23.3272C3.19655 23.3272 3.647 23.453 4.04028 23.7045C4.43813 23.9515 4.72623 24.3036 4.90458 24.7609H3.96482C3.84135 24.5094 3.66986 24.3219 3.45036 24.1984C3.23085 24.0749 2.97705 24.0132 2.68895 24.0132C2.37341 24.0132 2.09216 24.0841 1.84522 24.2258C1.59828 24.3676 1.40392 24.5711 1.26216 24.8363C1.12497 25.1016 1.05637 25.4103 1.05637 25.7624C1.05637 26.1145 1.12497 26.4232 1.26216 26.6884C1.40392 26.9537 1.59828 27.1595 1.84522 27.3058C2.09216 27.4476 2.37341 27.5184 2.68895 27.5184C2.97705 27.5184 3.23085 27.4567 3.45036 27.3332C3.66986 27.2098 3.84135 27.0223 3.96482 26.7707H4.90458C4.72623 27.228 4.43813 27.5802 4.04028 27.8271C3.647 28.0741 3.19655 28.1975 2.68895 28.1975C2.24079 28.1975 1.8315 28.0946 1.46109 27.8888C1.09067 27.6785 0.795708 27.3881 0.576203 27.0177C0.36127 26.6473 0.253804 26.2288 0.253804 25.7624ZM7.39074 28.2044C7.07063 28.2044 6.78253 28.1495 6.52644 28.0398C6.27035 27.9254 6.06913 27.7654 5.9228 27.5596C5.77646 27.3538 5.70329 27.1137 5.70329 26.8393H6.54016C6.55845 27.0451 6.63848 27.2143 6.78024 27.3469C6.92658 27.4796 7.13008 27.5459 7.39074 27.5459C7.66055 27.5459 7.87091 27.4818 8.02182 27.3538C8.17273 27.2212 8.24819 27.052 8.24819 26.8462C8.24819 26.6861 8.20017 26.5558 8.10414 26.4552C8.01267 26.3546 7.89606 26.2769 7.7543 26.222C7.61711 26.1671 7.42504 26.1077 7.1781 26.0436C6.86713 25.9613 6.61333 25.879 6.41668 25.7967C6.22462 25.7098 6.05999 25.5772 5.9228 25.3988C5.78561 25.2205 5.71701 24.9827 5.71701 24.6854C5.71701 24.4111 5.78561 24.171 5.9228 23.9652C6.05999 23.7594 6.25206 23.6016 6.499 23.4919C6.74594 23.3821 7.03176 23.3272 7.35644 23.3272C7.81832 23.3272 8.1956 23.4439 8.48827 23.6771C8.78552 23.9057 8.95015 24.2213 8.98216 24.6237H8.11785C8.10414 24.4499 8.02182 24.3013 7.87091 24.1778C7.72 24.0544 7.52107 23.9926 7.27413 23.9926C7.05005 23.9926 6.86713 24.0498 6.72537 24.1641C6.5836 24.2784 6.51272 24.4431 6.51272 24.658C6.51272 24.8043 6.55616 24.9255 6.64305 25.0216C6.73451 25.113 6.84884 25.1862 6.98603 25.2411C7.12322 25.2959 7.31071 25.3554 7.54851 25.4194C7.86405 25.5063 8.12014 25.5932 8.31678 25.6801C8.518 25.767 8.6872 25.9019 8.82439 26.0848C8.96615 26.2631 9.03704 26.5032 9.03704 26.805C9.03704 27.0474 8.97073 27.2761 8.83811 27.491C8.71006 27.7059 8.52028 27.8797 8.26876 28.0123C8.02182 28.1404 7.72915 28.2044 7.39074 28.2044ZM10.2753 28.2044C10.1335 28.2044 10.0146 28.1564 9.9186 28.0603C9.82256 27.9643 9.77454 27.8454 9.77454 27.7036C9.77454 27.5619 9.82256 27.443 9.9186 27.3469C10.0146 27.2509 10.1335 27.2029 10.2753 27.2029C10.4125 27.2029 10.5291 27.2509 10.6251 27.3469C10.7212 27.443 10.7692 27.5619 10.7692 27.7036C10.7692 27.8454 10.7212 27.9643 10.6251 28.0603C10.5291 28.1564 10.4125 28.2044 10.2753 28.2044ZM10.2753 25.3234C10.1335 25.3234 10.0146 25.2754 9.9186 25.1793C9.82256 25.0833 9.77454 24.9644 9.77454 24.8226C9.77454 24.6809 9.82256 24.562 9.9186 24.4659C10.0146 24.3699 10.1335 24.3219 10.2753 24.3219C10.4125 24.3219 10.5291 24.3699 10.6251 24.4659C10.7212 24.562 10.7692 24.6809 10.7692 24.8226C10.7692 24.9644 10.7212 25.0833 10.6251 25.1793C10.5291 25.2754 10.4125 25.3234 10.2753 25.3234ZM15.0915 24.7609C14.968 24.5231 14.7965 24.3447 14.577 24.2258C14.3575 24.1024 14.1037 24.0406 13.8156 24.0406C13.5001 24.0406 13.2188 24.1115 12.9719 24.2533C12.725 24.395 12.5306 24.5963 12.3888 24.8569C12.2516 25.1176 12.1831 25.4194 12.1831 25.7624C12.1831 26.1054 12.2516 26.4095 12.3888 26.6747C12.5306 26.9354 12.725 27.1366 12.9719 27.2783C13.2188 27.4201 13.5001 27.491 13.8156 27.491C14.2409 27.491 14.5862 27.3721 14.8514 27.1343C15.1167 26.8965 15.279 26.5741 15.3384 26.1671H13.5481V25.5429H16.1753V26.1534C16.125 26.5238 15.9924 26.8645 15.7775 27.1755C15.5671 27.4864 15.2904 27.7357 14.9475 27.9231C14.609 28.1061 14.2318 28.1975 13.8156 28.1975C13.3675 28.1975 12.9582 28.0946 12.5878 27.8888C12.2173 27.6785 11.9224 27.3881 11.7029 27.0177C11.488 26.6473 11.3805 26.2288 11.3805 25.7624C11.3805 25.2959 11.488 24.8775 11.7029 24.5071C11.9224 24.1367 12.2173 23.8486 12.5878 23.6428C12.9628 23.4324 13.372 23.3272 13.8156 23.3272C14.3232 23.3272 14.7737 23.453 15.167 23.7045C15.5648 23.9515 15.8529 24.3036 16.0313 24.7609H15.0915ZM19.1211 28.2044C18.6775 28.2044 18.2682 28.1015 17.8932 27.8957C17.5228 27.6853 17.2278 27.395 17.0083 27.0245C16.7934 26.6496 16.6859 26.2288 16.6859 25.7624C16.6859 25.2959 16.7934 24.8775 17.0083 24.5071C17.2278 24.1367 17.5228 23.8486 17.8932 23.6428C18.2682 23.4324 18.6775 23.3272 19.1211 23.3272C19.5692 23.3272 19.9785 23.4324 20.3489 23.6428C20.7239 23.8486 21.0189 24.1367 21.2338 24.5071C21.4487 24.8775 21.5562 25.2959 21.5562 25.7624C21.5562 26.2288 21.4487 26.6496 21.2338 27.0245C21.0189 27.395 20.7239 27.6853 20.3489 27.8957C19.9785 28.1015 19.5692 28.2044 19.1211 28.2044ZM19.1211 27.5253C19.4366 27.5253 19.7178 27.4544 19.9648 27.3126C20.2117 27.1663 20.4038 26.9605 20.541 26.6953C20.6828 26.4255 20.7536 26.1145 20.7536 25.7624C20.7536 25.4103 20.6828 25.1016 20.541 24.8363C20.4038 24.5711 20.2117 24.3676 19.9648 24.2258C19.7178 24.0841 19.4366 24.0132 19.1211 24.0132C18.8055 24.0132 18.5243 24.0841 18.2773 24.2258C18.0304 24.3676 17.836 24.5711 17.6943 24.8363C17.5571 25.1016 17.4885 25.4103 17.4885 25.7624C17.4885 26.1145 17.5571 26.4255 17.6943 26.6953C17.836 26.9605 18.0304 27.1663 18.2773 27.3126C18.5243 27.4544 18.8055 27.5253 19.1211 27.5253Z" fill="#333333"/>
<path d="M1.29646 45.6095H2.90845V46.2406H0.514467V41.4732H1.29646V45.6095ZM5.73689 46.2886C5.29331 46.2886 4.88402 46.1857 4.50903 45.9799C4.13862 45.7696 3.84366 45.4792 3.62415 45.1088C3.40922 44.7338 3.30175 44.3131 3.30175 43.8466C3.30175 43.3802 3.40922 42.9617 3.62415 42.5913C3.84366 42.2209 4.13862 41.9328 4.50903 41.727C4.88402 41.5167 5.29331 41.4115 5.73689 41.4115C6.18505 41.4115 6.59434 41.5167 6.96475 41.727C7.33974 41.9328 7.6347 42.2209 7.84964 42.5913C8.06457 42.9617 8.17203 43.3802 8.17203 43.8466C8.17203 44.3131 8.06457 44.7338 7.84964 45.1088C7.6347 45.4792 7.33974 45.7696 6.96475 45.9799C6.59434 46.1857 6.18505 46.2886 5.73689 46.2886ZM5.73689 45.6095C6.05243 45.6095 6.33367 45.5386 6.58062 45.3969C6.82756 45.2505 7.01963 45.0448 7.15682 44.7795C7.29858 44.5097 7.36947 44.1987 7.36947 43.8466C7.36947 43.4945 7.29858 43.1858 7.15682 42.9206C7.01963 42.6553 6.82756 42.4518 6.58062 42.3101C6.33367 42.1683 6.05243 42.0974 5.73689 42.0974C5.42135 42.0974 5.14011 42.1683 4.89317 42.3101C4.64622 42.4518 4.45187 42.6553 4.3101 42.9206C4.17291 43.1858 4.10432 43.4945 4.10432 43.8466C4.10432 44.1987 4.17291 44.5097 4.3101 44.7795C4.45187 45.0448 4.64622 45.2505 4.89317 45.3969C5.14011 45.5386 5.42135 45.6095 5.73689 45.6095ZM9.72353 45.6095H11.3355V46.2406H8.94154V41.4732H9.72353V45.6095Z" fill="#333333"/>
<path d="M4.62334 59.5577L2.833 64.3251H1.92754L0.130332 59.5577H0.967197L2.38027 63.5225L3.80019 59.5577H4.62334ZM5.01664 62.4181C5.01664 62.0386 5.09438 61.7024 5.24986 61.4098C5.40992 61.1171 5.62485 60.8907 5.89466 60.7307C6.16904 60.566 6.47086 60.4837 6.80012 60.4837C7.09737 60.4837 7.35575 60.5432 7.57525 60.6621C7.79933 60.7764 7.97768 60.9204 8.1103 61.0942V60.5455H8.89915V64.3251H8.1103V63.7626C7.97768 63.9409 7.79705 64.0896 7.56839 64.2085C7.33974 64.3274 7.07908 64.3868 6.7864 64.3868C6.46172 64.3868 6.16447 64.3045 5.89466 64.1399C5.62485 63.9707 5.40992 63.7374 5.24986 63.4402C5.09438 63.1384 5.01664 62.7977 5.01664 62.4181ZM8.1103 62.4318C8.1103 62.1712 8.05542 61.9448 7.94567 61.7527C7.84049 61.5607 7.70101 61.4143 7.52724 61.3137C7.35346 61.2131 7.16597 61.1628 6.96475 61.1628C6.76354 61.1628 6.57604 61.2131 6.40227 61.3137C6.22849 61.4098 6.08673 61.5538 5.97698 61.7459C5.8718 61.9334 5.81921 62.1575 5.81921 62.4181C5.81921 62.6788 5.8718 62.9074 5.97698 63.1041C6.08673 63.3007 6.22849 63.4516 6.40227 63.5568C6.58062 63.6574 6.76811 63.7077 6.96475 63.7077C7.16597 63.7077 7.35346 63.6574 7.52724 63.5568C7.70101 63.4562 7.84049 63.3099 7.94567 63.1178C8.05542 62.9212 8.1103 62.6925 8.1103 62.4318ZM10.7082 59.249V64.3251H9.92626V59.249H10.7082ZM13.3744 64.3868C13.0177 64.3868 12.6953 64.3068 12.4072 64.1467C12.1191 63.9821 11.8927 63.7534 11.7281 63.4608C11.5634 63.1635 11.4811 62.8205 11.4811 62.4318C11.4811 62.0477 11.5657 61.707 11.7349 61.4098C11.9041 61.1125 12.1351 60.8839 12.4277 60.7238C12.7204 60.5638 13.0474 60.4837 13.4087 60.4837C13.7699 60.4837 14.0969 60.5638 14.3896 60.7238C14.6823 60.8839 14.9132 61.1125 15.0824 61.4098C15.2516 61.707 15.3362 62.0477 15.3362 62.4318C15.3362 62.816 15.2493 63.1567 15.0755 63.4539C14.9018 63.7512 14.664 63.9821 14.3621 64.1467C14.0649 64.3068 13.7356 64.3868 13.3744 64.3868ZM13.3744 63.7077C13.5756 63.7077 13.7631 63.6597 13.9368 63.5637C14.1152 63.4676 14.2592 63.3236 14.369 63.1315C14.4788 62.9394 14.5336 62.7062 14.5336 62.4318C14.5336 62.1575 14.481 61.9265 14.3759 61.739C14.2707 61.547 14.1312 61.4029 13.9574 61.3069C13.7837 61.2108 13.5962 61.1628 13.3949 61.1628C13.1937 61.1628 13.0062 61.2108 12.8325 61.3069C12.6633 61.4029 12.5284 61.547 12.4277 61.739C12.3271 61.9265 12.2768 62.1575 12.2768 62.4318C12.2768 62.8388 12.3797 63.1544 12.5855 63.3785C12.7959 63.598 13.0588 63.7077 13.3744 63.7077ZM16.8912 61.0942C17.0056 60.9022 17.1565 60.7535 17.344 60.6484C17.536 60.5386 17.7624 60.4837 18.0231 60.4837V61.2931H17.8241C17.5177 61.2931 17.2845 61.3709 17.1245 61.5264C16.969 61.6819 16.8912 61.9517 16.8912 62.3358V64.3251H16.1092V60.5455H16.8912V61.0942ZM18.4812 62.4181C18.4812 62.0386 18.5589 61.7024 18.7144 61.4098C18.8745 61.1171 19.0894 60.8907 19.3592 60.7307C19.6336 60.566 19.9354 60.4837 20.2647 60.4837C20.5619 60.4837 20.8203 60.5432 21.0398 60.6621C21.2639 60.7764 21.4422 60.9204 21.5749 61.0942V60.5455H22.3637V64.3251H21.5749V63.7626C21.4422 63.9409 21.2616 64.0896 21.0329 64.2085C20.8043 64.3274 20.5436 64.3868 20.251 64.3868C19.9263 64.3868 19.629 64.3045 19.3592 64.1399C19.0894 63.9707 18.8745 63.7374 18.7144 63.4402C18.5589 63.1384 18.4812 62.7977 18.4812 62.4181ZM21.5749 62.4318C21.5749 62.1712 21.52 61.9448 21.4102 61.7527C21.305 61.5607 21.1656 61.4143 20.9918 61.3137C20.818 61.2131 20.6305 61.1628 20.4293 61.1628C20.2281 61.1628 20.0406 61.2131 19.8668 61.3137C19.693 61.4098 19.5513 61.5538 19.4415 61.7459C19.3364 61.9334 19.2838 62.1575 19.2838 62.4181C19.2838 62.6788 19.3364 62.9074 19.4415 63.1041C19.5513 63.3007 19.693 63.4516 19.8668 63.5568C20.0452 63.6574 20.2327 63.7077 20.4293 63.7077C20.6305 63.7077 20.818 63.6574 20.9918 63.5568C21.1656 63.4562 21.305 63.3099 21.4102 63.1178C21.52 62.9212 21.5749 62.6925 21.5749 62.4318ZM25.2978 60.4837C25.595 60.4837 25.8603 60.5455 26.0935 60.6689C26.3313 60.7924 26.5165 60.9753 26.6491 61.2177C26.7817 61.4601 26.848 61.7527 26.848 62.0957V64.3251H26.0729V62.2123C26.0729 61.8739 25.9883 61.6155 25.8191 61.4372C25.6499 61.2543 25.419 61.1628 25.1263 61.1628C24.8336 61.1628 24.6004 61.2543 24.4266 61.4372C24.2574 61.6155 24.1728 61.8739 24.1728 62.2123V64.3251H23.3908V60.5455H24.1728V60.9776C24.3008 60.8221 24.4632 60.7009 24.6598 60.6141C24.861 60.5272 25.0737 60.4837 25.2978 60.4837ZM28.7578 61.1834V63.2756C28.7578 63.4173 28.7898 63.5202 28.8539 63.5842C28.9225 63.6437 29.0368 63.6734 29.1968 63.6734H29.677V64.3251H29.0596C28.7075 64.3251 28.4377 64.2428 28.2502 64.0781C28.0627 63.9135 27.969 63.646 27.969 63.2756V61.1834H27.5231V60.5455H27.969V59.6057H28.7578V60.5455H29.677V61.1834H28.7578Z" fill="#333333"/>
<path d="M84.1359 9.40552C84.4871 9.10187 84.7633 8.8531 84.9646 8.6592C85.1694 8.46164 85.3395 8.25677 85.4749 8.04458C85.6103 7.83239 85.6779 7.6202 85.6779 7.40802C85.6779 7.18851 85.6249 7.01656 85.5188 6.89218C85.4164 6.76779 85.2536 6.7056 85.0304 6.7056C84.8146 6.7056 84.6463 6.77511 84.5255 6.91413C84.4085 7.04949 84.3463 7.23241 84.339 7.46289H83.7353C83.7463 7.04583 83.8707 6.72755 84.1085 6.50804C84.3499 6.28488 84.6554 6.1733 85.0249 6.1733C85.4237 6.1733 85.7347 6.28305 85.9578 6.50255C86.1846 6.72206 86.298 7.01473 86.298 7.38058C86.298 7.64398 86.2304 7.89825 86.095 8.14336C85.9633 8.38482 85.8042 8.60249 85.6176 8.79639C85.4347 8.98663 85.2005 9.20796 84.9152 9.4604L84.6682 9.6799H86.4078V10.2012H83.7408V9.74575L84.1359 9.40552ZM86.9464 7.24339C86.9684 6.90315 87.0982 6.63792 87.336 6.44768C87.5775 6.25744 87.8848 6.16232 88.258 6.16232C88.514 6.16232 88.7354 6.20805 88.922 6.29951C89.1085 6.39097 89.2494 6.51536 89.3445 6.67267C89.4396 6.82998 89.4872 7.00742 89.4872 7.20497C89.4872 7.4318 89.4268 7.62569 89.3061 7.78666C89.1854 7.94763 89.0409 8.05556 88.8726 8.11043V8.13239C89.0884 8.19824 89.2567 8.31897 89.3774 8.49457C89.4982 8.66652 89.5585 8.88785 89.5585 9.15857C89.5585 9.37442 89.5091 9.56649 89.4104 9.73478C89.3116 9.90307 89.1652 10.0366 88.9713 10.1354C88.7775 10.2305 88.5451 10.2781 88.2744 10.2781C87.8793 10.2781 87.5537 10.1774 87.2976 9.97623C87.0452 9.77136 86.9098 9.47869 86.8915 9.09821H87.4952C87.5098 9.29211 87.5848 9.45125 87.7202 9.57564C87.8555 9.69636 88.0384 9.75673 88.2689 9.75673C88.4921 9.75673 88.664 9.69636 88.7848 9.57564C88.9055 9.45125 88.9659 9.29211 88.9659 9.09821C88.9659 8.84212 88.8835 8.66103 88.7189 8.55493C88.5579 8.44518 88.3092 8.3903 87.9726 8.3903H87.8299V7.87447H87.9781C88.2744 7.87081 88.4994 7.82142 88.6531 7.7263C88.8104 7.63118 88.889 7.48118 88.889 7.27631C88.889 7.10071 88.8323 6.96169 88.7189 6.85925C88.6055 6.75316 88.4445 6.70011 88.236 6.70011C88.0311 6.70011 87.872 6.75316 87.7586 6.85925C87.6452 6.96169 87.5775 7.08973 87.5555 7.24339H86.9464ZM90.1169 7.22144C90.1169 6.95437 90.1937 6.74584 90.3474 6.59584C90.5047 6.44219 90.7059 6.36536 90.951 6.36536C91.1961 6.36536 91.3955 6.44219 91.5492 6.59584C91.7065 6.74584 91.7851 6.95437 91.7851 7.22144C91.7851 7.4885 91.7065 7.69886 91.5492 7.85252C91.3955 8.00617 91.1961 8.083 90.951 8.083C90.7059 8.083 90.5047 8.00617 90.3474 7.85252C90.1937 7.69886 90.1169 7.4885 90.1169 7.22144ZM93.4644 6.4367L91.2748 10.2561H90.6602L92.8497 6.4367H93.4644ZM90.951 6.74401C90.7205 6.74401 90.6053 6.90315 90.6053 7.22144C90.6053 7.54338 90.7205 7.70435 90.951 7.70435C91.0608 7.70435 91.1449 7.66594 91.2034 7.58911C91.2656 7.50862 91.2967 7.38607 91.2967 7.22144C91.2967 6.90315 91.1815 6.74401 90.951 6.74401ZM92.3504 9.46588C92.3504 9.19882 92.4272 8.99029 92.5808 8.84029C92.7382 8.68664 92.9394 8.60981 93.1845 8.60981C93.4259 8.60981 93.6235 8.68664 93.7772 8.84029C93.9345 8.99029 94.0131 9.19882 94.0131 9.46588C94.0131 9.73295 93.9345 9.94331 93.7772 10.097C93.6235 10.2506 93.4259 10.3274 93.1845 10.3274C92.9394 10.3274 92.7382 10.2506 92.5808 10.097C92.4272 9.94331 92.3504 9.73295 92.3504 9.46588ZM93.179 8.98846C92.9485 8.98846 92.8333 9.1476 92.8333 9.46588C92.8333 9.78417 92.9485 9.94331 93.179 9.94331C93.4095 9.94331 93.5247 9.78417 93.5247 9.46588C93.5247 9.1476 93.4095 8.98846 93.179 8.98846Z" fill="white"/>
<path d="M159.047 44.2724C158.667 44.0821 158.476 43.7821 158.476 43.3724C158.476 43.1748 158.526 42.9937 158.625 42.8291C158.723 42.6645 158.872 42.5346 159.069 42.4395C159.267 42.3407 159.508 42.2913 159.794 42.2913C160.075 42.2913 160.315 42.3407 160.512 42.4395C160.714 42.5346 160.864 42.6645 160.962 42.8291C161.061 42.9937 161.111 43.1748 161.111 43.3724C161.111 43.5773 161.058 43.7584 160.951 43.9157C160.849 44.0693 160.712 44.1882 160.54 44.2724C160.748 44.3492 160.913 44.4754 161.034 44.651C161.154 44.823 161.215 45.026 161.215 45.2601C161.215 45.4979 161.154 45.7083 161.034 45.8912C160.913 46.0741 160.745 46.215 160.529 46.3138C160.313 46.4125 160.068 46.4619 159.794 46.4619C159.519 46.4619 159.274 46.4125 159.058 46.3138C158.846 46.215 158.68 46.0741 158.559 45.8912C158.438 45.7083 158.378 45.4979 158.378 45.2601C158.378 45.0223 158.438 44.8175 158.559 44.6455C158.68 44.4736 158.842 44.3492 159.047 44.2724ZM160.512 43.4492C160.512 43.2443 160.448 43.087 160.32 42.9773C160.192 42.8675 160.017 42.8127 159.794 42.8127C159.574 42.8127 159.4 42.8675 159.272 42.9773C159.144 43.087 159.08 43.2462 159.08 43.4547C159.08 43.6376 159.146 43.7876 159.278 43.9047C159.413 44.0181 159.585 44.0748 159.794 44.0748C160.002 44.0748 160.174 44.0163 160.309 43.8992C160.445 43.7821 160.512 43.6321 160.512 43.4492ZM159.794 44.5467C159.552 44.5467 159.355 44.6071 159.201 44.7278C159.051 44.8449 158.976 45.015 158.976 45.2382C158.976 45.4467 159.049 45.6168 159.195 45.7485C159.342 45.8766 159.541 45.9406 159.794 45.9406C160.042 45.9406 160.238 45.8748 160.381 45.7431C160.527 45.6114 160.6 45.4431 160.6 45.2382C160.6 45.0187 160.525 44.8486 160.375 44.7278C160.229 44.6071 160.035 44.5467 159.794 44.5467ZM161.861 43.3504C161.883 43.0102 162.013 42.745 162.25 42.5547C162.492 42.3645 162.799 42.2694 163.172 42.2694C163.428 42.2694 163.65 42.3151 163.836 42.4066C164.023 42.498 164.164 42.6224 164.259 42.7797C164.354 42.937 164.401 43.1145 164.401 43.312C164.401 43.5389 164.341 43.7327 164.22 43.8937C164.1 44.0547 163.955 44.1626 163.787 44.2175V44.2394C164.003 44.3053 164.171 44.426 164.292 44.6016C164.412 44.7736 164.473 44.9949 164.473 45.2656C164.473 45.4815 164.423 45.6735 164.325 45.8418C164.226 46.0101 164.08 46.1437 163.886 46.2424C163.692 46.3376 163.459 46.3851 163.189 46.3851C162.794 46.3851 162.468 46.2845 162.212 46.0833C161.959 45.8784 161.824 45.5857 161.806 45.2053H162.409C162.424 45.3992 162.499 45.5583 162.634 45.6827C162.77 45.8034 162.953 45.8638 163.183 45.8638C163.406 45.8638 163.578 45.8034 163.699 45.6827C163.82 45.5583 163.88 45.3992 163.88 45.2053C163.88 44.9492 163.798 44.7681 163.633 44.662C163.472 44.5522 163.223 44.4974 162.887 44.4974H162.744V43.9815H162.892C163.189 43.9779 163.414 43.9285 163.567 43.8334C163.725 43.7382 163.803 43.5882 163.803 43.3834C163.803 43.2078 163.747 43.0687 163.633 42.9663C163.52 42.8602 163.359 42.8072 163.15 42.8072C162.945 42.8072 162.786 42.8602 162.673 42.9663C162.559 43.0687 162.492 43.1968 162.47 43.3504H161.861ZM165.031 43.3285C165.031 43.0614 165.108 42.8529 165.262 42.7029C165.419 42.5492 165.62 42.4724 165.865 42.4724C166.11 42.4724 166.31 42.5492 166.463 42.7029C166.621 42.8529 166.699 43.0614 166.699 43.3285C166.699 43.5956 166.621 43.8059 166.463 43.9596C166.31 44.1132 166.11 44.1901 165.865 44.1901C165.62 44.1901 165.419 44.1132 165.262 43.9596C165.108 43.8059 165.031 43.5956 165.031 43.3285ZM168.379 42.5438L166.189 46.3632H165.574L167.764 42.5438H168.379ZM165.865 42.8511C165.635 42.8511 165.52 43.0102 165.52 43.3285C165.52 43.6504 165.635 43.8114 165.865 43.8114C165.975 43.8114 166.059 43.773 166.118 43.6962C166.18 43.6157 166.211 43.4931 166.211 43.3285C166.211 43.0102 166.096 42.8511 165.865 42.8511ZM167.265 45.5729C167.265 45.3059 167.341 45.0973 167.495 44.9473C167.652 44.7937 167.854 44.7169 168.099 44.7169C168.34 44.7169 168.538 44.7937 168.691 44.9473C168.849 45.0973 168.927 45.3059 168.927 45.5729C168.927 45.84 168.849 46.0504 168.691 46.204C168.538 46.3577 168.34 46.4345 168.099 46.4345C167.854 46.4345 167.652 46.3577 167.495 46.204C167.341 46.0504 167.265 45.84 167.265 45.5729ZM168.093 45.0955C167.863 45.0955 167.748 45.2547 167.748 45.5729C167.748 45.8912 167.863 46.0504 168.093 46.0504C168.324 46.0504 168.439 45.8912 168.439 45.5729C168.439 45.2547 168.324 45.0955 168.093 45.0955Z" fill="white"/>
<path d="M149.661 25.0879L148.135 28.6055H147.504L149.046 25.1537H147.016V24.6214H149.661V25.0879ZM150.542 27.7549C150.893 27.4512 151.17 27.2025 151.371 27.0086C151.576 26.811 151.746 26.6061 151.881 26.3939C152.016 26.1818 152.084 25.9696 152.084 25.7574C152.084 25.5379 152.031 25.3659 151.925 25.2415C151.823 25.1172 151.66 25.055 151.437 25.055C151.221 25.055 151.052 25.1245 150.932 25.2635C150.815 25.3989 150.752 25.5818 150.745 25.8123H150.141C150.152 25.3952 150.277 25.0769 150.515 24.8574C150.756 24.6342 151.062 24.5227 151.431 24.5227C151.83 24.5227 152.141 24.6324 152.364 24.8519C152.591 25.0714 152.704 25.3641 152.704 25.7299C152.704 25.9933 152.637 26.2476 152.501 26.4927C152.369 26.7342 152.21 26.9519 152.024 27.1458C151.841 27.336 151.607 27.5573 151.321 27.8098L151.074 28.0293H152.814V28.5506H150.147V28.0951L150.542 27.7549ZM153.265 25.5708C153.265 25.3037 153.342 25.0952 153.495 24.9452C153.653 24.7916 153.854 24.7147 154.099 24.7147C154.344 24.7147 154.543 24.7916 154.697 24.9452C154.854 25.0952 154.933 25.3037 154.933 25.5708C154.933 25.8379 154.854 26.0482 154.697 26.2019C154.543 26.3555 154.344 26.4324 154.099 26.4324C153.854 26.4324 153.653 26.3555 153.495 26.2019C153.342 26.0482 153.265 25.8379 153.265 25.5708ZM156.612 24.7861L154.423 28.6055H153.808L155.998 24.7861H156.612ZM154.099 25.0934C153.868 25.0934 153.753 25.2525 153.753 25.5708C153.753 25.8927 153.868 26.0537 154.099 26.0537C154.209 26.0537 154.293 26.0153 154.351 25.9385C154.414 25.858 154.445 25.7354 154.445 25.5708C154.445 25.2525 154.329 25.0934 154.099 25.0934ZM155.498 27.8152C155.498 27.5482 155.575 27.3397 155.729 27.1897C155.886 27.036 156.087 26.9592 156.332 26.9592C156.574 26.9592 156.771 27.036 156.925 27.1897C157.082 27.3397 157.161 27.5482 157.161 27.8152C157.161 28.0823 157.082 28.2927 156.925 28.4463C156.771 28.6 156.574 28.6768 156.332 28.6768C156.087 28.6768 155.886 28.6 155.729 28.4463C155.575 28.2927 155.498 28.0823 155.498 27.8152ZM156.327 27.3378C156.096 27.3378 155.981 27.497 155.981 27.8152C155.981 28.1335 156.096 28.2927 156.327 28.2927C156.557 28.2927 156.673 28.1335 156.673 27.8152C156.673 27.497 156.557 27.3378 156.327 27.3378Z" fill="white"/>
<path d="M130.927 61.6397C130.887 61.4714 130.814 61.3452 130.708 61.261C130.602 61.1769 130.454 61.1348 130.263 61.1348C129.974 61.1348 129.759 61.2464 129.616 61.4696C129.473 61.6891 129.398 62.0549 129.391 62.5671C129.486 62.4061 129.625 62.2817 129.808 62.1939C129.991 62.1061 130.188 62.0622 130.401 62.0622C130.642 62.0622 130.854 62.1153 131.037 62.2214C131.224 62.3238 131.368 62.4738 131.471 62.6714C131.577 62.8689 131.63 63.1049 131.63 63.3793C131.63 63.6354 131.579 63.864 131.476 64.0652C131.377 64.2664 131.229 64.4256 131.032 64.5427C130.834 64.6561 130.596 64.7128 130.318 64.7128C129.941 64.7128 129.645 64.6305 129.429 64.4658C129.217 64.2975 129.067 64.0616 128.979 63.7579C128.895 63.4543 128.853 63.0756 128.853 62.622C128.853 61.283 129.325 60.6135 130.269 60.6135C130.635 60.6135 130.922 60.7123 131.13 60.9098C131.343 61.1074 131.467 61.3507 131.504 61.6397H130.927ZM130.263 62.5891C130.04 62.5891 129.85 62.6567 129.693 62.7921C129.539 62.9238 129.462 63.1159 129.462 63.3683C129.462 63.6207 129.534 63.8219 129.676 63.9719C129.823 64.1183 130.026 64.1914 130.285 64.1914C130.516 64.1914 130.697 64.1201 130.829 63.9774C130.964 63.8347 131.032 63.6445 131.032 63.4067C131.032 63.1579 130.966 62.9604 130.834 62.814C130.706 62.664 130.516 62.5891 130.263 62.5891ZM132.286 61.7001C132.308 61.3598 132.438 61.0946 132.676 60.9043C132.917 60.7141 133.225 60.619 133.598 60.619C133.854 60.619 134.075 60.6647 134.262 60.7562C134.448 60.8476 134.589 60.972 134.684 61.1293C134.779 61.2866 134.827 61.4641 134.827 61.6616C134.827 61.8885 134.767 62.0824 134.646 62.2433C134.525 62.4043 134.381 62.5122 134.212 62.5671V62.5891C134.428 62.6549 134.596 62.7756 134.717 62.9512C134.838 63.1232 134.898 63.3445 134.898 63.6152C134.898 63.8311 134.849 64.0232 134.75 64.1914C134.651 64.3597 134.505 64.4933 134.311 64.592C134.117 64.6872 133.885 64.7347 133.614 64.7347C133.219 64.7347 132.893 64.6341 132.637 64.4329C132.385 64.228 132.25 63.9354 132.231 63.5549H132.835C132.85 63.7488 132.925 63.9079 133.06 64.0323C133.195 64.153 133.378 64.2134 133.609 64.2134C133.832 64.2134 134.004 64.153 134.125 64.0323C134.245 63.9079 134.306 63.7488 134.306 63.5549C134.306 63.2988 134.223 63.1177 134.059 63.0116C133.898 62.9018 133.649 62.847 133.312 62.847H133.17V62.3311H133.318C133.614 62.3275 133.839 62.2781 133.993 62.183C134.15 62.0878 134.229 61.9378 134.229 61.733C134.229 61.5574 134.172 61.4184 134.059 61.3159C133.945 61.2098 133.784 61.1568 133.576 61.1568C133.371 61.1568 133.212 61.2098 133.098 61.3159C132.985 61.4184 132.917 61.5464 132.895 61.7001H132.286ZM135.457 61.6781C135.457 61.411 135.533 61.2025 135.687 61.0525C135.844 60.8989 136.046 60.822 136.291 60.822C136.536 60.822 136.735 60.8989 136.889 61.0525C137.046 61.2025 137.125 61.411 137.125 61.6781C137.125 61.9452 137.046 62.1555 136.889 62.3092C136.735 62.4628 136.536 62.5397 136.291 62.5397C136.046 62.5397 135.844 62.4628 135.687 62.3092C135.533 62.1555 135.457 61.9452 135.457 61.6781ZM138.804 60.8934L136.615 64.7128H136L138.19 60.8934H138.804ZM136.291 61.2007C136.06 61.2007 135.945 61.3598 135.945 61.6781C135.945 62 136.06 62.161 136.291 62.161C136.401 62.161 136.485 62.1226 136.543 62.0458C136.605 61.9653 136.637 61.8427 136.637 61.6781C136.637 61.3598 136.521 61.2007 136.291 61.2007ZM137.69 63.9225C137.69 63.6555 137.767 63.447 137.921 63.297C138.078 63.1433 138.279 63.0665 138.524 63.0665C138.766 63.0665 138.963 63.1433 139.117 63.297C139.274 63.447 139.353 63.6555 139.353 63.9225C139.353 64.1896 139.274 64.4 139.117 64.5536C138.963 64.7073 138.766 64.7841 138.524 64.7841C138.279 64.7841 138.078 64.7073 137.921 64.5536C137.767 64.4 137.69 64.1896 137.69 63.9225ZM138.519 63.4451C138.288 63.4451 138.173 63.6043 138.173 63.9225C138.173 64.2408 138.288 64.4 138.519 64.4C138.749 64.4 138.864 64.2408 138.864 63.9225C138.864 63.6043 138.749 63.4451 138.519 63.4451Z" fill="white"/>
<defs>
<filter id="filter0_d_1973_1582" x="54.5379" y="0.175888" width="137.244" height="18.7613" filterUnits="userSpaceOnUse" color-interpolation-filters="sRGB">
<feFlood flood-opacity="0" result="BackgroundImageFix"/>
<feColorMatrix in="SourceAlpha" type="matrix" values="0 0 0 0 0 0 0 0 0 0 0 0 0 0 0 0 0 0 127 0" result="hardAlpha"/>
<feMorphology radius="1.18384" operator="dilate" in="SourceAlpha" result="effect1_dropShadow_1973_1582"/>
<feOffset dy="1.18384"/>
<feGaussianBlur stdDeviation="2.07172"/>
<feComposite in2="hardAlpha" operator="out"/>
<feColorMatrix type="matrix" values="0 0 0 0 0.0369048 0 0 0 0 0.125 0 0 0 0 0.263095 0 0 0 0.15 0"/>
<feBlend mode="normal" in2="BackgroundImageFix" result="effect1_dropShadow_1973_1582"/>
<feBlend mode="normal" in="SourceGraphic" in2="effect1_dropShadow_1973_1582" result="shape"/>
</filter>
<filter id="filter1_d_1973_1582" x="54.4569" y="18.462" width="137.326" height="18.3495" filterUnits="userSpaceOnUse" color-interpolation-filters="sRGB">
<feFlood flood-opacity="0" result="BackgroundImageFix"/>
<feColorMatrix in="SourceAlpha" type="matrix" values="0 0 0 0 0 0 0 0 0 0 0 0 0 0 0 0 0 0 127 0" result="hardAlpha"/>
<feMorphology radius="1.18384" operator="dilate" in="SourceAlpha" result="effect1_dropShadow_1973_1582"/>
<feOffset dy="1.18384"/>
<feGaussianBlur stdDeviation="2.07172"/>
<feComposite in2="hardAlpha" operator="out"/>
<feColorMatrix type="matrix" values="0 0 0 0 0.0369048 0 0 0 0 0.125 0 0 0 0 0.263095 0 0 0 0.15 0"/>
<feBlend mode="normal" in2="BackgroundImageFix" result="effect1_dropShadow_1973_1582"/>
<feBlend mode="normal" in="SourceGraphic" in2="effect1_dropShadow_1973_1582" result="shape"/>
</filter>
<filter id="filter2_d_1973_1582" x="54.5379" y="36.3442" width="137.244" height="18.7613" filterUnits="userSpaceOnUse" color-interpolation-filters="sRGB">
<feFlood flood-opacity="0" result="BackgroundImageFix"/>
<feColorMatrix in="SourceAlpha" type="matrix" values="0 0 0 0 0 0 0 0 0 0 0 0 0 0 0 0 0 0 127 0" result="hardAlpha"/>
<feMorphology radius="1.18384" operator="dilate" in="SourceAlpha" result="effect1_dropShadow_1973_1582"/>
<feOffset dy="1.18384"/>
<feGaussianBlur stdDeviation="2.07172"/>
<feComposite in2="hardAlpha" operator="out"/>
<feColorMatrix type="matrix" values="0 0 0 0 0.0369048 0 0 0 0 0.125 0 0 0 0 0.263095 0 0 0 0.15 0"/>
<feBlend mode="normal" in2="BackgroundImageFix" result="effect1_dropShadow_1973_1582"/>
<feBlend mode="normal" in="SourceGraphic" in2="effect1_dropShadow_1973_1582" result="shape"/>
</filter>
<filter id="filter3_d_1973_1582" x="54.4569" y="54.5693" width="137.326" height="18.3495" filterUnits="userSpaceOnUse" color-interpolation-filters="sRGB">
<feFlood flood-opacity="0" result="BackgroundImageFix"/>
<feColorMatrix in="SourceAlpha" type="matrix" values="0 0 0 0 0 0 0 0 0 0 0 0 0 0 0 0 0 0 127 0" result="hardAlpha"/>
<feMorphology radius="1.18384" operator="dilate" in="SourceAlpha" result="effect1_dropShadow_1973_1582"/>
<feOffset dy="1.18384"/>
<feGaussianBlur stdDeviation="2.07172"/>
<feComposite in2="hardAlpha" operator="out"/>
<feColorMatrix type="matrix" values="0 0 0 0 0.0369048 0 0 0 0 0.125 0 0 0 0 0.263095 0 0 0 0.15 0"/>
<feBlend mode="normal" in2="BackgroundImageFix" result="effect1_dropShadow_1973_1582"/>
<feBlend mode="normal" in="SourceGraphic" in2="effect1_dropShadow_1973_1582" result="shape"/>
</filter>
</defs>
</svg>
